<?xml version="1.0" encoding="utf-8"?>
<!-- Generator: Adobe Illustrator 15.0.0, SVG Export Plug-In . SVG Version: 6.00 Build 0)  -->
<!DOCTYPE svg PUBLIC "-//W3C//DTD SVG 1.1//EN" "http://www.w3.org/Graphics/SVG/1.1/DTD/svg11.dtd">
<svg version="1.1" id="Layer_1" xmlns="http://www.w3.org/2000/svg" xmlns:xlink="http://www.w3.org/1999/xlink" x="0px" y="0px"
	 width="29.177px" height="48.813px" viewBox="0 0 29.177 48.813" enable-background="new 0 0 29.177 48.813" xml:space="preserve">
<path fill="#FFFFFF" d="M28.813,8.662c-0.119-1.51,0.797-8.655-6.471-9.373c-3.355-0.332-5.703-0.323-7.746-0.234
	c-2.045-0.09-4.393-0.101-7.748,0.229c-7.268,0.714-6.355,7.859-6.477,9.369C0.254,10.162-0.466,25.41,0.485,39.389
	c0,0-0.4,7.346,8.414,8.104c1.92,0.162,3.826,0.294,5.645,0.318v0.002c0.014,0,0.025,0,0.039,0c0.01,0,0.021,0,0.035,0v-0.002
	c1.82-0.023,3.727-0.153,5.645-0.315c8.816-0.752,8.422-8.098,8.422-8.098C29.641,25.418,28.93,10.17,28.813,8.662z M14.583,45.85
	c-1.449-0.001-2.621-1.177-2.621-2.62c0.002-1.451,1.174-2.623,2.623-2.622c1.445,0,2.621,1.172,2.619,2.623
	C17.204,44.674,16.028,45.85,14.583,45.85z M25.485,35.88c0,0.93-0.76,1.688-1.688,1.687L5.372,37.562
	c-0.928,0-1.688-0.759-1.688-1.688l0.008-27.24c0-0.928,0.762-1.687,1.688-1.687l18.426,0.005c0.93,0.001,1.688,0.761,1.688,1.688
	L25.485,35.88z"/>
</svg>
