<?xml version="1.0" encoding="utf-8"?>
<!-- Generator: Adobe Illustrator 15.0.0, SVG Export Plug-In . SVG Version: 6.00 Build 0)  -->
<!DOCTYPE svg PUBLIC "-//W3C//DTD SVG 1.1//EN" "http://www.w3.org/Graphics/SVG/1.1/DTD/svg11.dtd">
<svg version="1.1" id="Layer_1" xmlns="http://www.w3.org/2000/svg" xmlns:xlink="http://www.w3.org/1999/xlink" x="0px" y="0px"
	 width="40px" height="40px" viewBox="0 0 40 40" enable-background="new 0 0 40 40" xml:space="preserve">
<g id="hearth">
	<path fill="#FFFFFF" d="M35.613,4.214C32.9,1.498,28.926,0.512,25.28,1.231c-0.686,0.123-1.345,0.311-1.98,0.564
		c-0.021,0.008-0.047,0.025-0.065,0.035c-0.59,0.235-1.166,0.529-1.712,0.875c-0.339,0.206-0.644,0.468-0.961,0.717
		c-0.183,0.141-0.377,0.254-0.551,0.412c-2.051-1.816-4.515-2.763-7.21-2.763c-4.328,0-8.591,2.569-10.61,6.4
		c-1.779,3.377-1.552,7.226,0.605,10.626l0.22,0.361c0.348,0.57,0.803,1.136,1.446,1.767l15.455,18.771l15.579-18.701l-0.015-0.013
		c0.526-0.503,1.024-1.089,1.483-1.755l0.262-0.414v-0.016c2.005-3.163,2.313-6.708,0.913-9.912
		C37.584,6.71,36.743,5.342,35.613,4.214z M6.785,18.318l-0.249-0.256c-0.296-0.297-0.538-0.573-0.736-0.837l-0.264-0.424
		c-1.772-2.584-2.016-5.396-0.686-7.921c1.511-2.87,4.701-4.793,7.946-4.793c2.321,0,4.423,0.995,6.084,2.884l1.134,1.29l1.13-1.296
		c0.364-0.419,0.755-0.775,1.163-1.101c0.091-0.074,0.178-0.151,0.271-0.222c0.365-0.27,0.749-0.502,1.141-0.705
		c0.115-0.059,0.227-0.123,0.339-0.174c0.451-0.205,0.915-0.374,1.398-0.485c0.023-0.005,0.052-0.015,0.081-0.023
		c0.541-0.121,1.1-0.185,1.674-0.185c3.237,0,6.429,1.934,7.942,4.808c0.184,0.344,0.258,0.695,0.384,1.052
		c0.213,0.741,0.362,1.5,0.362,2.275c0,1.088-0.233,2.137-0.642,3.122c-0.226,0.496-0.445,0.992-0.775,1.476l-0.189,0.289
		c0,0.006-0.009,0.013-0.016,0.018c-0.291,0.395-0.601,0.75-0.911,1.044l-0.14,0.173c-0.018,0.02-0.026,0.033-0.046,0.054
		L19.928,34.285L6.785,18.318z"/>
</g>
</svg>
