<?xml version="1.0" encoding="utf-8"?>
<!-- Generator: Adobe Illustrator 16.0.0, SVG Export Plug-In . SVG Version: 6.00 Build 0)  -->
<!DOCTYPE svg PUBLIC "-//W3C//DTD SVG 1.1//EN" "http://www.w3.org/Graphics/SVG/1.1/DTD/svg11.dtd">
<svg version="1.1" id="Layer_1" xmlns="http://www.w3.org/2000/svg" xmlns:xlink="http://www.w3.org/1999/xlink" x="0px" y="0px"
	 width="40px" height="40px" viewBox="0 0 40 40" enable-background="new 0 0 40 40" xml:space="preserve">
<g id="Captions">
</g>
<g id="Your_Icon">
	<path fill="#FFFFFF" d="M27.835,4.018c-3.923,0-6.397,1.909-7.835,3.635c-1.438-1.726-3.912-3.635-7.835-3.635
		C5.486,4.018,1,10.204,1,15.982c0,8.41,16.157,19.685,17.999,20.94c0.302,0.206,0.651,0.31,1.001,0.31s0.699-0.104,1.001-0.31
		C22.844,35.667,39,24.395,39,15.982C39,10.204,34.514,4.018,27.835,4.018z M19.999,33.293C13.637,28.77,4.551,20.669,4.551,15.982
		c0-3.528,2.646-8.414,7.614-8.414c4.519,0,6.114,3.901,6.176,4.057c0.259,0.686,0.917,1.134,1.649,1.141c0.004,0,0.008,0,0.013,0
		c0.728,0,1.386-0.451,1.654-1.129c0.063-0.167,1.661-4.068,6.179-4.068c4.969,0,7.615,4.886,7.615,8.414
		C35.449,20.664,26.361,28.766,19.999,33.293z"/>
</g>
</svg>
