<?xml version="1.0" encoding="utf-8"?>
<!-- Generator: Adobe Illustrator 16.0.0, SVG Export Plug-In . SVG Version: 6.00 Build 0)  -->
<!DOCTYPE svg PUBLIC "-//W3C//DTD SVG 1.1//EN" "http://www.w3.org/Graphics/SVG/1.1/DTD/svg11.dtd">
<svg version="1.1" id="Layer_1" xmlns="http://www.w3.org/2000/svg" xmlns:xlink="http://www.w3.org/1999/xlink" x="0px" y="0px"
	 width="40px" height="40px" viewBox="0 0 40 40" enable-background="new 0 0 40 40" xml:space="preserve">
<g id="Captions">
</g>
<g id="Your_Icon">
	<g>
		<path fill="#FFFFFF" d="M39,20.022c0,0.537-0.111,1.049-0.332,1.538c-0.221,0.49-0.52,0.916-0.898,1.278
			c-0.378,0.363-0.812,0.654-1.302,0.876c-0.49,0.219-1.003,0.331-1.538,0.331H24.046v10.932c0,0.536-0.11,1.049-0.331,1.537
			c-0.221,0.491-0.521,0.916-0.899,1.279c-0.379,0.362-0.812,0.654-1.302,0.874C21.025,38.889,20.512,39,19.976,39
			c-0.537,0-1.048-0.111-1.539-0.332c-0.489-0.221-0.915-0.514-1.276-0.876c-0.364-0.361-0.655-0.788-0.876-1.278
			c-0.221-0.488-0.33-1.001-0.33-1.536V24.046H5.022c-0.537,0-1.049-0.11-1.538-0.332c-0.49-0.221-0.917-0.513-1.278-0.875
			c-0.362-0.363-0.655-0.788-0.874-1.278C1.11,21.071,1,20.56,1,20.022c0-0.537,0.11-1.048,0.332-1.538
			c0.219-0.489,0.512-0.923,0.874-1.301c0.362-0.379,0.789-0.679,1.278-0.899c0.488-0.22,1.001-0.331,1.538-0.331h10.932V5.069
			c0-0.536,0.108-1.048,0.33-1.538c0.22-0.488,0.513-0.922,0.875-1.301c0.362-0.38,0.789-0.678,1.278-0.899
			C18.928,1.111,19.439,1,19.976,1c0.536,0,1.049,0.11,1.538,0.332c0.49,0.221,0.925,0.52,1.302,0.898
			c0.378,0.379,0.678,0.813,0.899,1.302c0.219,0.489,0.331,1.002,0.331,1.538v10.885H34.93c0.535,0,1.05,0.111,1.538,0.331
			c0.489,0.221,0.924,0.521,1.302,0.899c0.377,0.379,0.678,0.813,0.898,1.302C38.889,18.975,39,19.487,39,20.022z"/>
	</g>
</g>
</svg>
