<?xml version="1.0" encoding="utf-8"?>
<!-- Generator: Adobe Illustrator 16.0.0, SVG Export Plug-In . SVG Version: 6.00 Build 0)  -->
<!DOCTYPE svg PUBLIC "-//W3C//DTD SVG 1.1//EN" "http://www.w3.org/Graphics/SVG/1.1/DTD/svg11.dtd">
<svg version="1.1" id="Layer_1" xmlns="http://www.w3.org/2000/svg" xmlns:xlink="http://www.w3.org/1999/xlink" x="0px" y="0px"
	 width="40px" height="40px" viewBox="0 0 40 40" enable-background="new 0 0 40 40" xml:space="preserve">
<g>
	<path fill="#FFFFFF" d="M15.061,19.581c-2.169-0.648-4.377-1.26-6.777-1.677c-0.498-1.625-0.823-3.266-1.007-5.167
		c-0.057-0.605-0.193-1.395-0.066-1.946c0.179-0.783,1.953-2.457,2.551-3.02c1.16-1.096,2.172-1.646,3.356-2.146
		c0.891-0.377,3.015-0.001,4.093,0.268c1.157,0.29,2.153,0.748,2.952,1.275c0.317,1.543,0.515,3.155,0.739,4.897
		c0.068,0.534,0.28,1.251,0.2,1.678c-0.099,0.534-1.043,1.048-1.543,1.476C17.97,16.582,16.373,18.113,15.061,19.581z"/>
	<path fill="#FFFFFF" d="M15.062,19.584H15.06c-2.063-0.617-4.313-1.248-6.776-1.677c-0.508-1.648-0.829-3.29-1.008-5.171
		c-0.012-0.117-0.026-0.241-0.041-0.369c-0.061-0.531-0.129-1.132-0.027-1.577c0.179-0.779,1.955-2.458,2.537-3.011l0.012-0.011
		c1.159-1.095,2.181-1.651,3.358-2.147c0.25-0.106,0.615-0.16,1.086-0.16c0.959,0,2.184,0.221,3.01,0.429
		c1.076,0.269,2.097,0.709,2.953,1.275c0.292,1.416,0.483,2.898,0.686,4.468l0.055,0.432c0.021,0.169,0.059,0.353,0.096,0.547
		c0.08,0.414,0.161,0.841,0.106,1.132c-0.072,0.391-0.598,0.772-1.061,1.109c-0.179,0.13-0.346,0.253-0.483,0.369
		c-1.688,1.45-3.244,2.958-4.496,4.361L15.062,19.584z M14.202,5.468c-0.471,0-0.835,0.053-1.084,0.159
		c-1.175,0.497-2.196,1.051-3.355,2.147L9.749,7.786c-0.583,0.551-2.358,2.229-2.536,3.006c-0.101,0.443-0.032,1.045,0.027,1.575
		c0.015,0.128,0.03,0.252,0.041,0.369c0.18,1.881,0.501,3.523,1.006,5.167c2.461,0.427,4.709,1.057,6.772,1.675
		c1.253-1.404,2.808-2.911,4.496-4.36c0.136-0.118,0.305-0.24,0.483-0.37c0.462-0.337,0.986-0.717,1.06-1.104
		c0.055-0.292-0.028-0.717-0.106-1.129c-0.037-0.195-0.074-0.379-0.096-0.547l-0.056-0.434c-0.201-1.569-0.392-3.052-0.683-4.465
		c-0.852-0.563-1.874-1.003-2.948-1.272C16.382,5.689,15.159,5.468,14.202,5.468z"/>
</g>
<g>
	<path fill="#FFFFFF" d="M32.442,11.26c1.67,0.344,2.984,1.044,4.228,1.812c0.439,1.107,0.842,2.332,1.207,3.624
		c0.356,1.257,0.832,2.748,0.672,4.16c-0.105,0.928-0.827,2.474-1.276,3.29c-0.536,0.978-1.229,1.903-1.945,2.549
		c-1.446-0.747-2.959-1.425-4.562-2.013c-0.141-2.314-0.592-4.254-1.143-6.24c-0.148-0.541-0.569-1.446-0.536-1.879
		c0.045-0.567,1.283-2.042,1.61-2.55C31.401,12.927,31.892,12.096,32.442,11.26z"/>
	<path fill="#FFFFFF" d="M35.33,26.698h-0.004c-1.499-0.775-3.033-1.453-4.562-2.013c-0.149-2.393-0.639-4.414-1.145-6.244
		c-0.05-0.178-0.128-0.394-0.211-0.622c-0.163-0.455-0.348-0.967-0.325-1.259c0.032-0.417,0.701-1.316,1.191-1.972
		c0.179-0.237,0.331-0.444,0.418-0.581c0.336-0.52,0.62-0.973,0.895-1.412c0.29-0.465,0.563-0.904,0.851-1.339
		c1.713,0.351,3.046,1.077,4.233,1.811c0.419,1.051,0.824,2.271,1.209,3.626c0.028,0.1,0.057,0.201,0.088,0.304
		c0.343,1.199,0.732,2.556,0.582,3.856c-0.109,0.965-0.881,2.575-1.274,3.291c-0.559,1.016-1.249,1.92-1.946,2.55V26.698z
		 M32.441,11.265c-0.281,0.432-0.557,0.872-0.846,1.336c-0.275,0.438-0.56,0.894-0.896,1.414c-0.088,0.136-0.242,0.341-0.418,0.581
		c-0.489,0.655-1.161,1.553-1.192,1.967c-0.021,0.289,0.164,0.803,0.327,1.255c0.083,0.229,0.161,0.444,0.21,0.624
		c0.508,1.83,0.996,3.851,1.142,6.242c1.525,0.559,3.061,1.235,4.559,2.006c0.696-0.627,1.387-1.531,1.943-2.548
		c0.392-0.717,1.163-2.322,1.274-3.286c0.148-1.299-0.24-2.655-0.582-3.853c-0.03-0.103-0.06-0.205-0.087-0.305
		c-0.386-1.354-0.791-2.574-1.209-3.624C35.482,12.342,34.149,11.616,32.441,11.265z"/>
</g>
<g>
	<path fill="#FFFFFF" d="M21.235,14.145c2.857,0.477,5.244,1.422,7.583,2.416c0.524,1.764,1.159,3.652,1.477,5.77
		c0.1,0.67,0.313,1.626,0.201,2.214c-0.098,0.523-0.823,1.092-1.275,1.544c-1.45,1.45-2.827,2.83-4.562,3.893
		c-2.869-0.509-5.435-1.321-7.719-2.416c-0.471-1.843-0.868-3.745-1.275-5.77c-0.119-0.588-0.467-1.375-0.402-1.879
		c0.056-0.435,0.829-1.165,1.274-1.611C18.037,16.809,19.783,15.413,21.235,14.145z"/>
	<path fill="#FFFFFF" d="M24.657,29.986L24.657,29.986c-2.826-0.503-5.422-1.315-7.719-2.416c-0.497-1.939-0.918-3.997-1.276-5.774
		c-0.039-0.2-0.106-0.418-0.176-0.653c-0.132-0.439-0.269-0.894-0.225-1.227c0.048-0.399,0.687-1.029,1.15-1.489
		c0.042-0.043,0.085-0.084,0.124-0.125c1.076-1.075,2.262-2.082,3.411-3.057c0.451-0.383,0.878-0.746,1.287-1.103
		c2.886,0.48,5.33,1.457,7.587,2.415c0.083,0.282,0.17,0.565,0.257,0.851c0.469,1.544,0.953,3.14,1.221,4.923
		c0.021,0.134,0.045,0.275,0.068,0.425c0.104,0.617,0.223,1.317,0.133,1.791c-0.079,0.416-0.555,0.863-0.973,1.257
		c-0.109,0.103-0.21,0.197-0.301,0.289l-0.017,0.016c-1.448,1.45-2.816,2.82-4.547,3.877L24.657,29.986z M21.234,14.149
		c-0.406,0.357-0.833,0.719-1.285,1.103c-1.146,0.974-2.333,1.98-3.408,3.057c-0.039,0.04-0.082,0.081-0.125,0.125
		c-0.438,0.432-1.1,1.088-1.148,1.483c-0.042,0.331,0.095,0.787,0.226,1.224c0.07,0.234,0.136,0.454,0.175,0.654
		c0.358,1.776,0.779,3.835,1.275,5.77c2.292,1.099,4.888,1.912,7.712,2.414c1.729-1.057,3.099-2.427,4.546-3.876l0.016-0.015
		c0.091-0.092,0.193-0.186,0.3-0.289c0.419-0.393,0.895-0.838,0.974-1.253c0.09-0.474-0.027-1.17-0.133-1.79
		c-0.024-0.149-0.051-0.293-0.07-0.422c-0.267-1.783-0.752-3.379-1.221-4.923c-0.087-0.286-0.173-0.569-0.255-0.848
		C26.562,15.606,24.118,14.63,21.234,14.149z"/>
</g>
<g>
	<path fill="#FFFFFF" d="M16.738,27.769c2.376,1.048,4.878,1.967,7.854,2.416c0.29,0.77,0.438,1.583,0.671,2.48
		c0.193,0.744,0.718,1.771,0.604,2.485c-0.115,0.718-1.799,1.71-2.618,2.078c-2.463,1.113-5.128,1.055-7.85,0.137
		c-1.036-0.351-2.749-1.035-3.289-1.612c-0.475-0.507-0.785-1.573-1.007-2.347c-0.269-0.941-0.372-1.838-0.469-2.886
		C12.793,29.727,14.821,28.803,16.738,27.769z"/>
	<path fill="#FFFFFF" d="M19.345,38.062c-1.256,0-2.584-0.232-3.949-0.692c-1.2-0.408-2.783-1.072-3.29-1.614
		c-0.479-0.511-0.798-1.618-1.008-2.349c-0.278-0.971-0.38-1.92-0.469-2.886c2.082-0.767,4.136-1.692,6.108-2.755
		c2.104,0.926,4.68,1.937,7.854,2.415c0.206,0.544,0.34,1.11,0.483,1.709c0.059,0.252,0.122,0.511,0.189,0.775
		c0.059,0.227,0.149,0.478,0.242,0.741c0.218,0.612,0.441,1.245,0.362,1.744c-0.117,0.729-1.847,1.734-2.62,2.083
		C22.03,37.783,20.715,38.062,19.345,38.062z M16.738,27.772c-1.97,1.062-4.023,1.987-6.103,2.751
		c0.091,0.961,0.193,1.909,0.472,2.879c0.209,0.732,0.529,1.838,1.006,2.348c0.504,0.539,2.086,1.205,3.287,1.607
		c1.362,0.461,2.688,0.696,3.945,0.696c1.37,0,2.683-0.28,3.903-0.829c0.77-0.348,2.5-1.353,2.615-2.076
		c0.079-0.496-0.145-1.13-0.361-1.741c-0.095-0.263-0.185-0.514-0.242-0.74c-0.07-0.267-0.133-0.524-0.19-0.775
		c-0.142-0.601-0.277-1.167-0.481-1.707C21.416,29.71,18.838,28.698,16.738,27.772z"/>
</g>
<g>
	<g>
		<path fill="#FFFFFF" d="M27.142,2.536c0.048,0.988,0.122,1.993-0.065,2.885c-2.555,0.197-4.876,0.629-6.711,1.544
			c-1.768-1.096-4.025-1.7-6.844-1.744c-0.041-0.966-0.037-1.978-0.134-2.885C17.044,0.624,23.676,0.71,27.142,2.536z"/>
		<path fill="#FFFFFF" d="M20.363,6.969h-0.002c-1.797-1.113-4.098-1.701-6.842-1.744c-0.017-0.304-0.026-0.612-0.034-0.911
			c-0.019-0.665-0.037-1.351-0.104-1.978c1.67-0.784,4.091-1.232,6.642-1.232c2.8,0,5.396,0.522,7.119,1.431
			c0.008,0.095,0.011,0.189,0.017,0.282c0.046,0.884,0.092,1.798-0.08,2.607c-2.919,0.229-5.051,0.719-6.713,1.546H20.363z
			 M20.022,1.11c-2.551,0-4.968,0.447-6.636,1.228c0.069,0.624,0.088,1.31,0.106,1.974c0.008,0.3,0.016,0.608,0.03,0.907
			c2.743,0.041,5.045,0.627,6.84,1.741c1.663-0.826,3.794-1.316,6.71-1.542c0.169-0.804,0.12-1.718,0.078-2.602
			c-0.006-0.093-0.01-0.188-0.016-0.279C25.416,1.631,22.822,1.11,20.022,1.11z"/>
	</g>
	<g>
		<path fill="#FFFFFF" d="M27.477,2.67c4.51,1.888,7.751,5.043,9.729,9.462c-0.183,0.198-0.308,0.452-0.469,0.671
			c-1.236-0.776-2.647-1.379-4.227-1.811c-1.548-2.011-3.006-4.108-5.167-5.503C27.412,4.573,27.522,3.7,27.477,2.67z"/>
		<path fill="#FFFFFF" d="M36.738,12.808l-0.003-0.002c-1.224-0.768-2.646-1.376-4.227-1.811c-0.178-0.229-0.351-0.457-0.526-0.686
			c-1.34-1.76-2.726-3.58-4.643-4.817c0.015-0.202,0.03-0.399,0.047-0.594c0.06-0.699,0.12-1.421,0.086-2.228V2.666l0.006,0.002
			c4.485,1.878,7.76,5.062,9.73,9.464c-0.113,0.127-0.207,0.274-0.297,0.417c-0.056,0.085-0.111,0.174-0.171,0.257L36.738,12.808z
			 M27.479,2.675c0.035,0.806-0.024,1.525-0.085,2.221c-0.018,0.197-0.034,0.394-0.051,0.592c1.918,1.236,3.306,3.056,4.646,4.817
			c0.173,0.228,0.348,0.457,0.522,0.685c1.578,0.432,3.001,1.041,4.224,1.808c0.059-0.082,0.114-0.169,0.168-0.255
			c0.091-0.142,0.186-0.292,0.299-0.414C35.232,7.735,31.962,4.553,27.479,2.675z"/>
	</g>
	<g>
		<path fill="#FFFFFF" d="M6.941,10.79c0.131,2.622,0.383,5.121,1.141,7.115c-1.201,1.799-2.31,3.684-2.685,6.308
			c-0.941,0.301-2.396,0.237-3.354,0c-1.215-1.588-1.127-4.812-0.739-7.18c0.386-2.361,1.196-4.549,2.148-6.106
			C4.386,10.498,5.839,10.547,6.941,10.79z"/>
		<path fill="#FFFFFF" d="M3.833,24.418c-0.619,0-1.271-0.074-1.791-0.204C0.577,22.3,1.104,18.232,1.301,17.03
			c0.368-2.25,1.15-4.476,2.148-6.109c0.46-0.21,1.083-0.321,1.804-0.321c0.547,0,1.148,0.067,1.689,0.186
			c0.12,2.347,0.349,5.026,1.144,7.117c-1.148,1.723-2.301,3.629-2.684,6.31C4.985,24.348,4.443,24.418,3.833,24.418z M5.254,10.61
			c-0.72,0-1.343,0.11-1.8,0.318c-0.994,1.629-1.778,3.854-2.144,6.104c-0.197,1.201-0.726,5.265,0.736,7.178
			c0.516,0.126,1.17,0.2,1.787,0.2c0.609,0,1.148-0.07,1.564-0.202c0.378-2.679,1.533-4.584,2.682-6.306
			c-0.797-2.088-1.023-4.768-1.142-7.111C6.399,10.674,5.8,10.61,5.254,10.61z"/>
	</g>
	<g>
		<path fill="#FFFFFF" d="M38.818,21.325c0.076-0.01,0.118,0.018,0.135,0.068c-0.32,4.594-2.072,8.051-4.363,10.803
			c-0.286,0.345-0.536,0.933-1.072,0.94c-0.201-0.499,0.263-0.987,0.469-1.41c0.652-1.347,1.292-2.993,1.544-4.832
			C36.994,25.408,37.983,23.441,38.818,21.325z"/>
		<path fill="#FFFFFF" d="M33.514,33.141v-0.004c-0.152-0.375,0.079-0.755,0.283-1.087c0.071-0.115,0.135-0.222,0.186-0.326
			c0.825-1.705,1.331-3.286,1.544-4.83c1.612-1.64,2.604-3.837,3.29-5.568c0.015-0.004,0.023-0.006,0.034-0.006
			c0.057,0,0.092,0.023,0.104,0.071c-0.285,4.087-1.712,7.619-4.363,10.807c-0.064,0.077-0.129,0.17-0.193,0.265
			c-0.219,0.313-0.468,0.67-0.881,0.676h-0.004V33.141L33.514,33.141z M38.85,21.326c-0.009,0-0.021,0.002-0.031,0.002
			c-0.682,1.73-1.674,3.932-3.286,5.569c-0.212,1.544-0.716,3.125-1.544,4.83c-0.051,0.104-0.117,0.212-0.184,0.325
			c-0.204,0.331-0.434,0.707-0.286,1.08c0.411-0.007,0.657-0.361,0.874-0.674c0.065-0.094,0.13-0.186,0.195-0.263
			c2.649-3.188,4.076-6.719,4.36-10.803C38.936,21.349,38.901,21.326,38.85,21.326z"/>
	</g>
	<g>
		<path fill="#FFFFFF" d="M5.333,24.479c1.249,2.486,2.945,4.525,5.101,6.107c0.019,2.106,0.794,3.814,1.342,5.167
			c-0.855,0.191-1.866-0.002-2.617-0.135c-2.258-1.602-4.252-3.761-5.704-6.375c-0.745-1.34-1.445-2.592-1.41-4.697
			C3.021,24.641,4.449,24.696,5.333,24.479z"/>
		<path fill="#FFFFFF" d="M10.969,35.836c-0.601,0-1.224-0.109-1.724-0.196l-0.089-0.017C6.823,33.97,4.85,31.765,3.45,29.246
			l-0.01-0.02c-0.738-1.33-1.436-2.583-1.399-4.682v-0.007l0.003,0.002c0.394,0.037,0.997,0.085,1.646,0.085
			c0.684,0,1.236-0.051,1.642-0.152c1.252,2.488,2.969,4.542,5.103,6.109c0.02,1.942,0.679,3.545,1.209,4.837
			c0.045,0.113,0.091,0.224,0.136,0.332v0.004l-0.004,0.002C11.536,35.811,11.265,35.836,10.969,35.836z M2.048,24.552
			c-0.037,2.093,0.66,3.345,1.397,4.672l0.01,0.019c1.4,2.518,3.373,4.723,5.703,6.375l0.087,0.015
			c0.5,0.089,1.123,0.198,1.723,0.198c0.293,0,0.562-0.026,0.799-0.078c-0.043-0.107-0.088-0.218-0.134-0.327
			c-0.529-1.293-1.189-2.898-1.207-4.838c-2.135-1.562-3.85-3.62-5.1-6.106c-0.403,0.103-0.955,0.152-1.64,0.152
			C3.043,24.633,2.442,24.589,2.048,24.552z"/>
	</g>
	<g>
		<path fill="#FFFFFF" d="M19.76,38.907c-0.038-0.1,0.079-0.347-0.066-0.337c2.62-0.6,4.99-1.45,6.439-3.219
			c2.903-0.121,5.289-0.754,6.913-2.15c0.814,0.279-0.384,1.003-0.872,1.409C29.262,37.035,24.774,39.305,19.76,38.907z"/>
		<path fill="#FFFFFF" d="M20.907,38.955c-0.382,0-0.77-0.015-1.147-0.044c-0.018-0.039-0.01-0.097-0.002-0.152
			c0.007-0.066,0.018-0.136-0.01-0.165c-0.011-0.015-0.028-0.017-0.054-0.017l-0.002-0.011c2.316-0.529,4.889-1.325,6.441-3.219
			c3.118-0.129,5.381-0.831,6.911-2.147c0.171,0.057,0.264,0.136,0.28,0.235c0.043,0.271-0.453,0.646-0.852,0.946
			c-0.109,0.085-0.214,0.163-0.297,0.231C30.607,35.92,26.37,38.955,20.907,38.955z M19.72,38.569
			c0.013,0.002,0.024,0.008,0.034,0.017c0.028,0.035,0.02,0.106,0.011,0.174c-0.007,0.057-0.015,0.111,0,0.146
			c0.375,0.028,0.762,0.043,1.145,0.043c5.46,0,9.696-3.033,11.264-4.337c0.084-0.07,0.187-0.148,0.297-0.232
			c0.396-0.3,0.891-0.674,0.848-0.938c-0.016-0.1-0.107-0.178-0.271-0.232c-1.529,1.317-3.791,2.021-6.912,2.148
			C24.592,37.239,22.03,38.039,19.72,38.569z"/>
	</g>
	<g>
		<path fill="#FFFFFF" d="M20,39C9.524,39,1,30.478,1,20C1,9.522,9.524,1,20,1c10.476,0,19,8.524,19,19C39,30.476,30.476,39,20,39z
			 M20,1.527C9.813,1.527,1.527,9.813,1.527,20S9.813,38.473,20,38.473S38.473,30.187,38.473,20C38.471,9.813,30.187,1.527,20,1.527
			z"/>
	</g>
</g>
</svg>
