<?xml version="1.0" encoding="utf-8"?>
<!-- Generator: Adobe Illustrator 15.0.0, SVG Export Plug-In . SVG Version: 6.00 Build 0)  -->
<!DOCTYPE svg PUBLIC "-//W3C//DTD SVG 1.1//EN" "http://www.w3.org/Graphics/SVG/1.1/DTD/svg11.dtd">
<svg version="1.1" id="Layer_1" xmlns="http://www.w3.org/2000/svg" xmlns:xlink="http://www.w3.org/1999/xlink" x="0px" y="0px"
	 width="40px" height="40px" viewBox="0 0 40 40" enable-background="new 0 0 40 40" xml:space="preserve">
<g>
	<path fill="#FFFFFF" stroke="#FFFFFF" stroke-miterlimit="10" d="M15.061,19.581c-2.169-0.648-4.377-1.26-6.777-1.677
		c-0.498-1.625-0.823-3.266-1.007-5.167c-0.057-0.605-0.193-1.395-0.066-1.946c0.179-0.783,1.953-2.457,2.551-3.02
		c1.16-1.096,2.172-1.646,3.356-2.146c0.891-0.377,3.015-0.001,4.093,0.268c1.157,0.29,2.153,0.748,2.952,1.275
		c0.317,1.543,0.515,3.155,0.739,4.897c0.068,0.534,0.279,1.251,0.199,1.678c-0.099,0.534-1.042,1.048-1.542,1.476
		C17.97,16.582,16.373,18.113,15.061,19.581z"/>
	<path fill="#FFFFFF" stroke="#FFFFFF" stroke-miterlimit="10" d="M15.062,19.584H15.06c-2.063-0.617-4.313-1.248-6.776-1.677
		c-0.508-1.648-0.829-3.29-1.008-5.171c-0.012-0.117-0.026-0.241-0.041-0.369c-0.061-0.531-0.129-1.132-0.027-1.577
		c0.179-0.779,1.955-2.458,2.537-3.011l0.012-0.011c1.159-1.095,2.181-1.651,3.358-2.147c0.25-0.106,0.615-0.16,1.086-0.16
		c0.959,0,2.184,0.221,3.01,0.429c1.076,0.269,2.097,0.709,2.953,1.275c0.292,1.416,0.482,2.898,0.686,4.468l0.055,0.432
		c0.021,0.169,0.06,0.353,0.097,0.547c0.08,0.414,0.161,0.841,0.106,1.132c-0.072,0.391-0.599,0.772-1.062,1.109
		c-0.179,0.13-0.346,0.253-0.483,0.369c-1.688,1.45-3.244,2.958-4.496,4.361L15.062,19.584z M14.202,5.468
		c-0.471,0-0.835,0.053-1.084,0.159c-1.175,0.497-2.196,1.051-3.355,2.147L9.749,7.786c-0.583,0.551-2.358,2.229-2.536,3.006
		c-0.101,0.443-0.032,1.045,0.027,1.575c0.015,0.128,0.03,0.252,0.041,0.369c0.18,1.881,0.501,3.523,1.006,5.167
		c2.461,0.427,4.709,1.057,6.772,1.675c1.253-1.404,2.808-2.911,4.496-4.36c0.136-0.118,0.305-0.24,0.483-0.37
		c0.462-0.337,0.985-0.717,1.06-1.104c0.055-0.292-0.027-0.717-0.105-1.129c-0.037-0.195-0.074-0.379-0.096-0.547l-0.057-0.434
		c-0.201-1.569-0.392-3.052-0.683-4.465c-0.852-0.563-1.874-1.003-2.948-1.272C16.382,5.689,15.159,5.468,14.202,5.468z"/>
</g>
<g>
	<path fill="#FFFFFF" stroke="#FFFFFF" stroke-miterlimit="10" d="M32.441,11.26c1.67,0.344,2.984,1.044,4.229,1.812
		c0.439,1.107,0.842,2.332,1.207,3.624c0.355,1.257,0.832,2.748,0.672,4.16c-0.105,0.929-0.826,2.475-1.275,3.291
		c-0.537,0.978-1.229,1.902-1.945,2.549c-1.446-0.747-2.959-1.426-4.562-2.014c-0.141-2.313-0.592-4.253-1.143-6.24
		c-0.148-0.541-0.568-1.446-0.536-1.879c0.045-0.567,1.283-2.042,1.61-2.55C31.4,12.927,31.893,12.096,32.441,11.26z"/>
	<path fill="#FFFFFF" stroke="#FFFFFF" stroke-miterlimit="10" d="M35.33,26.698h-0.004c-1.499-0.775-3.033-1.453-4.562-2.013
		c-0.148-2.394-0.639-4.415-1.145-6.245c-0.051-0.178-0.128-0.394-0.211-0.622c-0.163-0.455-0.348-0.967-0.325-1.259
		c0.032-0.417,0.701-1.316,1.19-1.972c0.18-0.237,0.332-0.444,0.418-0.581c0.336-0.52,0.621-0.973,0.896-1.412
		c0.29-0.465,0.563-0.904,0.851-1.339c1.713,0.351,3.047,1.077,4.233,1.811c0.419,1.051,0.824,2.271,1.209,3.626
		c0.028,0.1,0.058,0.201,0.088,0.304c0.343,1.199,0.732,2.556,0.582,3.856c-0.108,0.965-0.881,2.574-1.274,3.291
		c-0.559,1.016-1.248,1.92-1.945,2.549V26.698z M32.441,11.265c-0.281,0.432-0.558,0.872-0.846,1.336
		c-0.275,0.438-0.561,0.894-0.896,1.414c-0.088,0.136-0.242,0.341-0.418,0.581c-0.489,0.655-1.161,1.553-1.192,1.967
		c-0.021,0.289,0.164,0.803,0.327,1.255c0.083,0.229,0.161,0.444,0.21,0.624c0.508,1.83,0.996,3.851,1.142,6.242
		c1.525,0.56,3.062,1.235,4.56,2.006c0.696-0.627,1.387-1.53,1.942-2.547c0.393-0.718,1.164-2.322,1.274-3.287
		c0.147-1.298-0.239-2.654-0.582-3.853c-0.03-0.103-0.06-0.205-0.087-0.305c-0.387-1.354-0.791-2.574-1.209-3.624
		C35.482,12.342,34.148,11.616,32.441,11.265z"/>
</g>
<g>
	<path fill="#FFFFFF" stroke="#FFFFFF" stroke-miterlimit="10" d="M21.234,14.145c2.857,0.477,5.244,1.422,7.584,2.416
		c0.523,1.764,1.158,3.652,1.477,5.77c0.1,0.67,0.312,1.626,0.201,2.214c-0.098,0.523-0.823,1.092-1.275,1.544
		c-1.449,1.45-2.826,2.83-4.562,3.894c-2.869-0.51-5.435-1.321-7.719-2.416c-0.471-1.844-0.868-3.746-1.275-5.771
		c-0.119-0.588-0.467-1.375-0.402-1.879c0.056-0.435,0.829-1.165,1.274-1.611C18.037,16.809,19.783,15.413,21.234,14.145z"/>
	<path fill="#FFFFFF" stroke="#FFFFFF" stroke-miterlimit="10" d="M24.657,29.986L24.657,29.986
		c-2.826-0.504-5.422-1.315-7.719-2.416c-0.497-1.939-0.918-3.997-1.276-5.774c-0.039-0.2-0.106-0.418-0.176-0.653
		c-0.132-0.438-0.269-0.894-0.225-1.227c0.048-0.399,0.688-1.029,1.15-1.489c0.042-0.043,0.085-0.084,0.124-0.125
		c1.076-1.075,2.262-2.082,3.411-3.057c0.451-0.383,0.878-0.746,1.287-1.103c2.887,0.48,5.33,1.457,7.588,2.415
		c0.082,0.282,0.17,0.565,0.257,0.851c0.469,1.544,0.952,3.14,1.221,4.923c0.021,0.134,0.045,0.274,0.068,0.425
		c0.104,0.617,0.223,1.317,0.133,1.791c-0.079,0.416-0.556,0.863-0.974,1.258c-0.108,0.103-0.209,0.196-0.301,0.288l-0.017,0.017
		c-1.448,1.449-2.815,2.82-4.547,3.877H24.657z M21.234,14.149c-0.406,0.357-0.833,0.719-1.285,1.103
		c-1.146,0.974-2.333,1.98-3.408,3.057c-0.039,0.04-0.082,0.081-0.125,0.125c-0.438,0.432-1.1,1.088-1.148,1.483
		c-0.042,0.331,0.095,0.787,0.226,1.224c0.07,0.234,0.136,0.455,0.175,0.654c0.358,1.775,0.779,3.835,1.275,5.77
		c2.292,1.1,4.888,1.912,7.712,2.414c1.729-1.057,3.099-2.427,4.546-3.875l0.016-0.016c0.091-0.092,0.193-0.186,0.3-0.289
		c0.42-0.393,0.896-0.838,0.975-1.253c0.09-0.474-0.027-1.17-0.133-1.79c-0.024-0.148-0.051-0.293-0.07-0.422
		c-0.268-1.783-0.752-3.379-1.221-4.923c-0.088-0.286-0.174-0.569-0.256-0.848C26.562,15.606,24.118,14.63,21.234,14.149z"/>
</g>
<g>
	<path fill="#FFFFFF" stroke="#FFFFFF" stroke-miterlimit="10" d="M16.738,27.77c2.376,1.047,4.878,1.967,7.854,2.416
		c0.29,0.77,0.438,1.582,0.672,2.479c0.192,0.744,0.717,1.771,0.604,2.485c-0.115,0.718-1.799,1.709-2.618,2.078
		c-2.463,1.112-5.128,1.055-7.85,0.137c-1.036-0.352-2.749-1.035-3.289-1.612c-0.475-0.507-0.785-1.573-1.007-2.347
		c-0.269-0.941-0.372-1.838-0.469-2.887C12.793,29.727,14.821,28.803,16.738,27.77z"/>
	<path fill="#FFFFFF" stroke="#FFFFFF" stroke-miterlimit="10" d="M19.345,38.062c-1.256,0-2.584-0.232-3.949-0.692
		c-1.2-0.408-2.783-1.072-3.29-1.614c-0.479-0.511-0.798-1.617-1.008-2.349c-0.278-0.972-0.38-1.921-0.469-2.886
		c2.082-0.768,4.136-1.692,6.108-2.756c2.104,0.926,4.68,1.938,7.854,2.416c0.206,0.543,0.341,1.109,0.483,1.709
		c0.059,0.252,0.121,0.51,0.189,0.774c0.059,0.228,0.148,0.478,0.241,0.741c0.218,0.611,0.44,1.244,0.362,1.744
		c-0.117,0.729-1.848,1.733-2.62,2.082C22.029,37.783,20.715,38.062,19.345,38.062z M16.738,27.771
		c-1.97,1.062-4.023,1.987-6.103,2.752c0.091,0.961,0.193,1.908,0.472,2.879c0.209,0.731,0.529,1.838,1.006,2.348
		c0.504,0.539,2.086,1.205,3.287,1.607c1.362,0.461,2.688,0.695,3.945,0.695c1.37,0,2.682-0.279,3.903-0.828
		c0.77-0.349,2.5-1.354,2.615-2.076c0.078-0.496-0.146-1.131-0.361-1.741c-0.095-0.263-0.186-0.515-0.242-0.74
		c-0.07-0.267-0.133-0.524-0.189-0.774c-0.143-0.602-0.277-1.168-0.481-1.707C21.416,29.71,18.838,28.698,16.738,27.771z"/>
</g>
<g>
	<g>
		<path fill="#FFFFFF" stroke="#FFFFFF" stroke-miterlimit="10" d="M27.143,2.536c0.047,0.988,0.121,1.993-0.065,2.885
			c-2.556,0.197-4.876,0.629-6.711,1.544c-1.768-1.096-4.025-1.7-6.844-1.744c-0.041-0.966-0.037-1.978-0.134-2.885
			C17.044,0.624,23.676,0.71,27.143,2.536z"/>
		<path fill="#FFFFFF" stroke="#FFFFFF" stroke-miterlimit="10" d="M20.363,6.969h-0.002c-1.797-1.113-4.098-1.701-6.842-1.744
			c-0.017-0.304-0.026-0.612-0.034-0.911c-0.019-0.665-0.037-1.351-0.104-1.978c1.67-0.784,4.091-1.232,6.642-1.232
			c2.8,0,5.396,0.522,7.12,1.431c0.008,0.095,0.01,0.189,0.017,0.282c0.046,0.884,0.092,1.798-0.08,2.607
			c-2.919,0.229-5.052,0.719-6.713,1.546h-0.003V6.969z M20.022,1.11c-2.551,0-4.968,0.447-6.636,1.228
			c0.069,0.624,0.088,1.31,0.106,1.974c0.008,0.3,0.016,0.608,0.03,0.907c2.743,0.041,5.045,0.627,6.84,1.741
			c1.664-0.826,3.794-1.316,6.71-1.542c0.169-0.804,0.119-1.718,0.078-2.602c-0.006-0.093-0.01-0.188-0.017-0.279
			C25.416,1.631,22.822,1.11,20.022,1.11z"/>
	</g>
	<g>
		<path fill="#FFFFFF" stroke="#FFFFFF" stroke-miterlimit="10" d="M27.477,2.67c4.51,1.888,7.752,5.043,9.729,9.462
			c-0.183,0.198-0.308,0.452-0.47,0.671c-1.235-0.776-2.646-1.379-4.227-1.811c-1.548-2.011-3.006-4.108-5.167-5.503
			C27.412,4.573,27.521,3.7,27.477,2.67z"/>
		<path fill="#FFFFFF" stroke="#FFFFFF" stroke-miterlimit="10" d="M36.738,12.808l-0.004-0.002
			c-1.223-0.768-2.646-1.376-4.227-1.811c-0.178-0.229-0.351-0.457-0.525-0.686c-1.34-1.76-2.727-3.58-4.644-4.817
			c0.015-0.202,0.03-0.399,0.048-0.594c0.059-0.699,0.119-1.421,0.086-2.228V2.666l0.006,0.002c4.484,1.878,7.76,5.062,9.729,9.464
			c-0.112,0.127-0.207,0.274-0.297,0.417c-0.056,0.085-0.111,0.174-0.171,0.257L36.738,12.808z M27.479,2.675
			c0.035,0.806-0.023,1.525-0.084,2.221c-0.019,0.197-0.035,0.394-0.052,0.592c1.919,1.236,3.306,3.056,4.646,4.817
			c0.174,0.228,0.349,0.457,0.523,0.685c1.577,0.432,3,1.041,4.223,1.808c0.06-0.082,0.115-0.169,0.168-0.255
			c0.092-0.142,0.187-0.292,0.3-0.414C35.232,7.735,31.962,4.553,27.479,2.675z"/>
	</g>
	<g>
		<path fill="#FFFFFF" stroke="#FFFFFF" stroke-miterlimit="10" d="M6.941,10.79c0.131,2.622,0.383,5.121,1.141,7.115
			c-1.201,1.799-2.31,3.684-2.685,6.308c-0.941,0.301-2.396,0.237-3.354,0c-1.215-1.588-1.127-4.812-0.739-7.18
			c0.386-2.361,1.196-4.549,2.148-6.106C4.386,10.498,5.839,10.547,6.941,10.79z"/>
		<path fill="#FFFFFF" stroke="#FFFFFF" stroke-miterlimit="10" d="M3.833,24.418c-0.619,0-1.271-0.074-1.791-0.204
			C0.577,22.3,1.104,18.232,1.301,17.03c0.368-2.25,1.15-4.476,2.148-6.109c0.46-0.21,1.083-0.321,1.804-0.321
			c0.547,0,1.148,0.067,1.689,0.186c0.12,2.347,0.349,5.026,1.144,7.117c-1.148,1.723-2.301,3.629-2.684,6.31
			C4.985,24.348,4.443,24.418,3.833,24.418z M5.254,10.61c-0.72,0-1.343,0.11-1.8,0.318c-0.994,1.629-1.778,3.854-2.144,6.104
			c-0.197,1.201-0.726,5.265,0.736,7.178c0.516,0.126,1.17,0.2,1.787,0.2c0.609,0,1.148-0.07,1.564-0.202
			c0.378-2.679,1.533-4.584,2.682-6.306c-0.797-2.088-1.023-4.768-1.142-7.111C6.399,10.674,5.8,10.61,5.254,10.61z"/>
	</g>
	<g>
		<path fill="#FFFFFF" stroke="#FFFFFF" stroke-miterlimit="10" d="M38.818,21.325c0.076-0.011,0.117,0.018,0.135,0.067
			c-0.32,4.594-2.072,8.051-4.363,10.803c-0.285,0.346-0.535,0.934-1.072,0.94c-0.201-0.499,0.264-0.987,0.469-1.409
			c0.652-1.348,1.293-2.994,1.545-4.832C36.994,25.408,37.982,23.441,38.818,21.325z"/>
		<path fill="#FFFFFF" stroke="#FFFFFF" stroke-miterlimit="10" d="M33.514,33.141v-0.004c-0.152-0.375,0.079-0.755,0.283-1.087
			c0.071-0.114,0.135-0.222,0.186-0.325c0.826-1.705,1.332-3.287,1.545-4.83c1.611-1.641,2.604-3.838,3.289-5.568
			c0.016-0.004,0.023-0.006,0.035-0.006c0.057,0,0.092,0.022,0.104,0.07c-0.285,4.088-1.712,7.619-4.363,10.808
			c-0.064,0.077-0.129,0.17-0.193,0.265c-0.219,0.312-0.467,0.67-0.881,0.676h-0.004V33.141L33.514,33.141z M38.85,21.326
			c-0.009,0-0.021,0.002-0.031,0.002c-0.682,1.73-1.674,3.932-3.285,5.568c-0.213,1.545-0.717,3.125-1.545,4.83
			c-0.051,0.104-0.116,0.213-0.184,0.325c-0.203,0.331-0.434,0.707-0.285,1.08c0.41-0.007,0.656-0.36,0.873-0.674
			c0.065-0.094,0.131-0.187,0.195-0.263c2.648-3.188,4.076-6.719,4.36-10.803C38.936,21.35,38.9,21.326,38.85,21.326z"/>
	</g>
	<g>
		<path fill="#FFFFFF" stroke="#FFFFFF" stroke-miterlimit="10" d="M5.333,24.479c1.249,2.486,2.945,4.525,5.101,6.107
			c0.019,2.105,0.794,3.814,1.342,5.167c-0.855,0.19-1.866-0.002-2.617-0.135c-2.258-1.603-4.252-3.761-5.704-6.375
			c-0.745-1.341-1.445-2.593-1.41-4.697C3.021,24.641,4.449,24.695,5.333,24.479z"/>
		<path fill="#FFFFFF" stroke="#FFFFFF" stroke-miterlimit="10" d="M10.969,35.836c-0.601,0-1.224-0.109-1.724-0.195l-0.089-0.018
			c-2.333-1.652-4.306-3.857-5.706-6.377l-0.01-0.02c-0.738-1.33-1.436-2.584-1.399-4.683v-0.007l0.003,0.002
			c0.394,0.037,0.997,0.085,1.646,0.085c0.684,0,1.236-0.051,1.642-0.151c1.252,2.487,2.969,4.541,5.103,6.108
			c0.02,1.942,0.679,3.545,1.209,4.837c0.045,0.113,0.091,0.225,0.136,0.332v0.004l-0.004,0.002
			C11.536,35.811,11.265,35.836,10.969,35.836z M2.048,24.552c-0.037,2.093,0.66,3.345,1.397,4.673l0.01,0.019
			c1.4,2.518,3.373,4.723,5.703,6.375l0.087,0.015c0.5,0.09,1.123,0.198,1.723,0.198c0.293,0,0.562-0.026,0.799-0.078
			c-0.043-0.106-0.088-0.218-0.134-0.327c-0.529-1.293-1.189-2.898-1.207-4.838c-2.135-1.562-3.85-3.62-5.1-6.105
			c-0.403,0.103-0.955,0.151-1.64,0.151C3.043,24.633,2.442,24.589,2.048,24.552z"/>
	</g>
	<g>
		<path fill="#FFFFFF" stroke="#FFFFFF" stroke-miterlimit="10" d="M19.76,38.907c-0.038-0.101,0.079-0.347-0.066-0.337
			c2.621-0.6,4.99-1.45,6.439-3.219c2.903-0.121,5.289-0.754,6.913-2.15c0.813,0.279-0.384,1.003-0.872,1.408
			C29.262,37.035,24.773,39.305,19.76,38.907z"/>
		<path fill="#FFFFFF" stroke="#FFFFFF" stroke-miterlimit="10" d="M20.907,38.955c-0.382,0-0.77-0.016-1.147-0.044
			c-0.018-0.039-0.01-0.097-0.002-0.152c0.007-0.065,0.018-0.136-0.01-0.165c-0.011-0.015-0.028-0.017-0.054-0.017l-0.002-0.011
			c2.316-0.529,4.889-1.325,6.441-3.219c3.118-0.13,5.381-0.832,6.911-2.147c0.171,0.057,0.265,0.136,0.28,0.235
			c0.043,0.271-0.453,0.646-0.852,0.945c-0.109,0.085-0.215,0.163-0.298,0.23C30.607,35.92,26.37,38.955,20.907,38.955z
			 M19.72,38.568c0.013,0.002,0.024,0.009,0.034,0.018c0.028,0.035,0.02,0.105,0.011,0.174c-0.007,0.057-0.015,0.111,0,0.146
			c0.375,0.027,0.762,0.043,1.145,0.043c5.46,0,9.695-3.033,11.264-4.338c0.084-0.069,0.188-0.147,0.297-0.231
			c0.396-0.3,0.891-0.674,0.848-0.938c-0.016-0.1-0.106-0.178-0.271-0.231c-1.528,1.317-3.791,2.021-6.912,2.147
			C24.592,37.239,22.029,38.039,19.72,38.568z"/>
	</g>
	<g>
		<path fill="#FFFFFF" stroke="#FFFFFF" stroke-miterlimit="10" d="M20,39C9.524,39,1,30.479,1,20C1,9.522,9.524,1,20,1
			c10.477,0,19,8.524,19,19C39,30.477,30.477,39,20,39z M20,1.527C9.813,1.527,1.527,9.813,1.527,20
			c0,10.188,8.286,18.473,18.473,18.473c10.188,0,18.473-8.285,18.473-18.473C38.471,9.813,30.188,1.527,20,1.527z"/>
	</g>
</g>
</svg>
