<?xml version="1.0" encoding="utf-8"?>
<!-- Generator: Adobe Illustrator 16.0.0, SVG Export Plug-In . SVG Version: 6.00 Build 0)  -->
<!DOCTYPE svg PUBLIC "-//W3C//DTD SVG 1.1//EN" "http://www.w3.org/Graphics/SVG/1.1/DTD/svg11.dtd">
<svg version="1.1" id="Layer_1" xmlns="http://www.w3.org/2000/svg" xmlns:xlink="http://www.w3.org/1999/xlink" x="0px" y="0px"
	 width="40px" height="40px" viewBox="0 0 40 40" enable-background="new 0 0 40 40" xml:space="preserve">
<g>
	<path fill="#FFFFFF" d="M15.047,19.581c-2.17-0.648-4.377-1.259-6.777-1.677c-0.499-1.625-0.822-3.265-1.006-5.167
		c-0.057-0.604-0.193-1.395-0.067-1.946c0.179-0.782,1.954-2.457,2.55-3.021c1.16-1.096,2.172-1.646,3.357-2.146
		c0.891-0.376,3.016-0.001,4.093,0.27c1.157,0.289,2.151,0.746,2.952,1.274c0.318,1.542,0.514,3.156,0.74,4.898
		c0.066,0.532,0.279,1.251,0.199,1.678c-0.101,0.535-1.043,1.046-1.543,1.478C17.955,16.582,16.356,18.114,15.047,19.581z"/>
	<path fill="#FFFFFF" d="M15.047,19.585h-0.002c-2.063-0.617-4.312-1.248-6.775-1.677c-0.508-1.647-0.829-3.29-1.01-5.17
		c-0.01-0.117-0.025-0.242-0.039-0.37c-0.062-0.531-0.129-1.132-0.027-1.578c0.18-0.777,1.955-2.458,2.538-3.009l0.013-0.013
		c1.159-1.096,2.18-1.65,3.357-2.147c0.25-0.104,0.615-0.159,1.086-0.159c0.958,0,2.184,0.221,3.01,0.428
		c1.076,0.27,2.098,0.709,2.953,1.275c0.293,1.416,0.482,2.898,0.686,4.467l0.056,0.435c0.021,0.168,0.057,0.353,0.096,0.546
		c0.078,0.413,0.162,0.84,0.106,1.132c-0.073,0.39-0.6,0.772-1.062,1.108c-0.179,0.13-0.346,0.252-0.483,0.369
		c-1.688,1.451-3.244,2.959-4.496,4.362L15.047,19.585z M14.187,5.468c-0.47,0-0.834,0.055-1.083,0.159
		c-1.176,0.496-2.197,1.052-3.355,2.146L9.736,7.785C9.153,8.337,7.377,10.015,7.2,10.791c-0.103,0.444-0.032,1.045,0.027,1.575
		c0.015,0.128,0.028,0.252,0.04,0.37c0.181,1.881,0.501,3.522,1.007,5.167c2.46,0.427,4.709,1.057,6.772,1.674
		c1.252-1.402,2.807-2.911,4.496-4.359c0.137-0.119,0.305-0.242,0.482-0.371c0.462-0.338,0.984-0.718,1.061-1.104
		c0.053-0.291-0.029-0.718-0.107-1.129c-0.037-0.195-0.072-0.379-0.094-0.547l-0.058-0.433c-0.2-1.569-0.391-3.052-0.684-4.466
		c-0.853-0.562-1.873-1.003-2.948-1.272C16.367,5.689,15.145,5.468,14.187,5.468z"/>
</g>
<g>
	<path fill="#FFFFFF" d="M32.428,11.261c1.67,0.344,2.984,1.043,4.227,1.812c0.439,1.106,0.844,2.332,1.209,3.625
		c0.357,1.257,0.832,2.747,0.672,4.16c-0.107,0.928-0.828,2.473-1.275,3.287c-0.539,0.98-1.229,1.904-1.946,2.551
		c-1.445-0.748-2.959-1.426-4.562-2.014c-0.142-2.312-0.593-4.253-1.142-6.239c-0.149-0.542-0.569-1.447-0.537-1.879
		c0.043-0.567,1.281-2.043,1.608-2.551C31.385,12.927,31.877,12.097,32.428,11.261z"/>
	<path fill="#FFFFFF" d="M35.314,26.699l-0.002-0.002c-1.5-0.773-3.035-1.451-4.562-2.014c-0.147-2.391-0.639-4.413-1.145-6.242
		c-0.051-0.179-0.129-0.394-0.211-0.622c-0.164-0.454-0.348-0.967-0.326-1.26c0.033-0.416,0.703-1.314,1.191-1.971
		c0.18-0.238,0.332-0.445,0.42-0.58c0.336-0.52,0.621-0.975,0.895-1.414c0.289-0.463,0.564-0.902,0.85-1.338
		c1.713,0.351,3.047,1.077,4.234,1.811c0.42,1.052,0.824,2.271,1.209,3.626c0.029,0.101,0.057,0.202,0.088,0.306
		c0.344,1.197,0.732,2.555,0.582,3.854c-0.109,0.965-0.881,2.574-1.273,3.289c-0.559,1.018-1.25,1.924-1.946,2.553L35.314,26.699z
		 M32.426,11.265c-0.281,0.434-0.558,0.873-0.846,1.336c-0.275,0.438-0.56,0.894-0.896,1.414c-0.089,0.136-0.242,0.342-0.421,0.58
		c-0.487,0.655-1.159,1.554-1.19,1.967c-0.021,0.289,0.164,0.803,0.326,1.256c0.084,0.229,0.162,0.443,0.211,0.623
		c0.508,1.83,0.994,3.853,1.142,6.241c1.526,0.559,3.061,1.234,4.559,2.008c0.697-0.629,1.389-1.531,1.943-2.549
		c0.393-0.715,1.166-2.322,1.274-3.287c0.147-1.298-0.239-2.654-0.584-3.852c-0.028-0.104-0.06-0.204-0.086-0.306
		c-0.386-1.354-0.791-2.573-1.209-3.624C35.467,12.343,34.135,11.616,32.426,11.265z"/>
</g>
<g>
	<path fill="#FFFFFF" d="M21.221,14.146c2.856,0.478,5.244,1.423,7.582,2.416c0.524,1.765,1.16,3.654,1.479,5.771
		c0.1,0.67,0.312,1.625,0.201,2.215c-0.1,0.521-0.824,1.092-1.275,1.543c-1.451,1.451-2.828,2.83-4.562,3.895
		c-2.869-0.512-5.435-1.322-7.72-2.416c-0.471-1.846-0.867-3.746-1.273-5.771c-0.119-0.588-0.467-1.374-0.404-1.879
		c0.057-0.436,0.83-1.166,1.276-1.61C18.022,16.808,19.769,15.414,21.221,14.146z"/>
	<path fill="#FFFFFF" d="M24.643,29.986L24.643,29.986c-2.824-0.502-5.422-1.316-7.719-2.416c-0.5-1.938-0.92-3.996-1.277-5.773
		c-0.04-0.201-0.105-0.422-0.176-0.652c-0.133-0.439-0.27-0.895-0.228-1.229c0.05-0.397,0.687-1.028,1.151-1.489
		c0.043-0.043,0.086-0.084,0.125-0.123c1.074-1.076,2.262-2.084,3.41-3.059c0.449-0.383,0.878-0.746,1.287-1.104
		c2.886,0.48,5.33,1.457,7.586,2.416c0.084,0.281,0.17,0.563,0.259,0.85c0.469,1.544,0.952,3.14,1.221,4.923
		c0.021,0.133,0.043,0.275,0.068,0.426c0.104,0.617,0.223,1.316,0.133,1.791c-0.078,0.418-0.556,0.863-0.976,1.258
		c-0.106,0.102-0.209,0.197-0.301,0.287l-0.016,0.016c-1.449,1.451-2.816,2.818-4.547,3.879H24.643z M21.221,14.149
		c-0.406,0.355-0.834,0.719-1.285,1.102c-1.148,0.975-2.334,1.981-3.41,3.059c-0.039,0.039-0.082,0.08-0.125,0.125
		c-0.438,0.433-1.1,1.088-1.148,1.483c-0.043,0.332,0.094,0.785,0.226,1.223c0.069,0.234,0.136,0.453,0.176,0.654
		c0.356,1.777,0.779,3.834,1.274,5.771c2.293,1.098,4.89,1.91,7.714,2.412c1.729-1.057,3.098-2.426,4.545-3.875l0.016-0.016
		c0.093-0.09,0.193-0.186,0.302-0.287c0.42-0.395,0.896-0.84,0.973-1.256c0.092-0.471-0.027-1.17-0.131-1.787
		c-0.025-0.15-0.051-0.293-0.07-0.424c-0.268-1.783-0.752-3.379-1.221-4.922c-0.088-0.286-0.172-0.569-0.254-0.848
		C26.547,15.607,24.104,14.632,21.221,14.149z"/>
</g>
<g>
	<path fill="#FFFFFF" d="M16.723,27.768c2.377,1.049,4.879,1.969,7.854,2.416c0.289,0.77,0.439,1.584,0.672,2.482
		c0.193,0.744,0.717,1.77,0.604,2.484c-0.115,0.717-1.8,1.711-2.617,2.078c-2.463,1.111-5.13,1.055-7.851,0.137
		c-1.037-0.352-2.75-1.035-3.289-1.611c-0.475-0.508-0.785-1.576-1.008-2.35c-0.269-0.939-0.373-1.836-0.469-2.885
		C12.778,29.727,14.807,28.803,16.723,27.768z"/>
	<path fill="#FFFFFF" d="M19.33,38.062c-1.257,0-2.584-0.232-3.947-0.693c-1.203-0.408-2.785-1.072-3.291-1.613
		c-0.479-0.512-0.797-1.617-1.008-2.35c-0.277-0.971-0.379-1.92-0.469-2.887c2.082-0.766,4.137-1.691,6.107-2.756
		c2.104,0.928,4.681,1.939,7.854,2.416c0.207,0.545,0.343,1.111,0.484,1.711c0.06,0.25,0.121,0.51,0.188,0.775
		c0.06,0.227,0.148,0.477,0.242,0.74c0.217,0.611,0.441,1.246,0.361,1.744c-0.115,0.729-1.846,1.732-2.619,2.082
		C22.016,37.785,20.701,38.062,19.33,38.062z M16.723,27.773c-1.971,1.061-4.023,1.986-6.104,2.748
		c0.092,0.963,0.194,1.91,0.471,2.881c0.211,0.732,0.529,1.838,1.008,2.348c0.504,0.539,2.084,1.203,3.287,1.609
		c1.363,0.461,2.689,0.693,3.945,0.693c1.369,0,2.684-0.277,3.902-0.828c0.77-0.348,2.5-1.354,2.615-2.076
		c0.08-0.496-0.146-1.129-0.361-1.74c-0.094-0.264-0.184-0.516-0.242-0.74c-0.07-0.268-0.131-0.525-0.189-0.777
		c-0.143-0.6-0.278-1.166-0.481-1.707C21.4,29.711,18.823,28.699,16.723,27.773z"/>
</g>
<g>
	<g>
		<path fill="#FFFFFF" d="M27.127,2.536c0.047,0.988,0.123,1.994-0.065,2.885c-2.556,0.198-4.875,0.631-6.712,1.545
			c-1.768-1.097-4.027-1.701-6.846-1.746c-0.041-0.966-0.037-1.978-0.133-2.886C17.028,0.623,23.66,0.711,27.127,2.536z"/>
		<path fill="#FFFFFF" d="M20.348,6.97l-0.002-0.002c-1.795-1.113-4.098-1.699-6.842-1.744c-0.018-0.303-0.025-0.611-0.035-0.912
			c-0.018-0.663-0.035-1.351-0.104-1.978c1.672-0.784,4.092-1.231,6.643-1.231c2.801,0,5.395,0.521,7.119,1.43
			c0.008,0.096,0.012,0.189,0.018,0.283c0.045,0.885,0.09,1.799-0.082,2.607c-2.918,0.229-5.051,0.719-6.713,1.545L20.348,6.97z
			 M20.008,1.111c-2.551,0-4.969,0.448-6.637,1.228c0.069,0.623,0.088,1.311,0.106,1.976c0.008,0.299,0.017,0.606,0.028,0.907
			c2.744,0.041,5.047,0.627,6.842,1.74c1.664-0.826,3.795-1.316,6.713-1.543c0.168-0.804,0.121-1.718,0.076-2.602
			c-0.006-0.094-0.01-0.188-0.014-0.28C25.4,1.632,22.807,1.111,20.008,1.111z"/>
	</g>
	<g>
		<path fill="#FFFFFF" d="M27.461,2.671c4.51,1.889,7.752,5.043,9.73,9.463c-0.182,0.196-0.309,0.45-0.469,0.67
			c-1.236-0.776-2.648-1.379-4.227-1.812c-1.548-2.009-3.007-4.107-5.169-5.503C27.396,4.573,27.508,3.7,27.461,2.671z"/>
		<path fill="#FFFFFF" d="M36.725,12.808l-0.004-0.002c-1.225-0.768-2.646-1.377-4.228-1.811c-0.178-0.229-0.352-0.457-0.524-0.686
			c-1.34-1.76-2.728-3.58-4.644-4.817c0.015-0.202,0.029-0.397,0.048-0.595c0.059-0.698,0.12-1.42,0.084-2.228V2.665l0.006,0.002
			c4.485,1.878,7.76,5.062,9.731,9.465c-0.114,0.125-0.209,0.273-0.299,0.416c-0.056,0.086-0.111,0.174-0.17,0.258L36.725,12.808z
			 M27.465,2.677c0.035,0.803-0.025,1.524-0.086,2.222C27.36,5.095,27.346,5.291,27.33,5.49c1.916,1.235,3.305,3.056,4.645,4.815
			c0.174,0.229,0.348,0.457,0.521,0.686c1.577,0.432,3.002,1.041,4.225,1.809c0.059-0.082,0.115-0.171,0.168-0.255
			c0.09-0.143,0.186-0.291,0.299-0.413C35.219,7.736,31.947,4.554,27.465,2.677z"/>
	</g>
	<g>
		<path fill="#FFFFFF" d="M6.926,10.79c0.133,2.621,0.383,5.121,1.142,7.114c-1.2,1.798-2.312,3.684-2.685,6.307
			c-0.942,0.301-2.396,0.236-3.355,0c-1.214-1.588-1.126-4.812-0.738-7.18c0.387-2.36,1.196-4.549,2.148-6.106
			C4.371,10.498,5.823,10.548,6.926,10.79z"/>
		<path fill="#FFFFFF" d="M3.817,24.418c-0.618,0-1.271-0.074-1.791-0.203c-1.466-1.914-0.938-5.981-0.741-7.184
			c0.368-2.25,1.15-4.478,2.148-6.108c0.459-0.209,1.083-0.32,1.804-0.32c0.547,0,1.147,0.065,1.688,0.185
			c0.121,2.349,0.35,5.024,1.145,7.116c-1.148,1.725-2.301,3.628-2.684,6.31C4.969,24.348,4.428,24.418,3.817,24.418z M5.238,10.61
			c-0.72,0-1.342,0.109-1.799,0.318c-0.994,1.629-1.777,3.854-2.145,6.104c-0.197,1.201-0.726,5.265,0.735,7.177
			c0.519,0.127,1.17,0.201,1.787,0.201c0.61,0,1.149-0.07,1.563-0.201c0.381-2.68,1.533-4.585,2.684-6.307
			c-0.796-2.088-1.023-4.767-1.143-7.112C6.385,10.675,5.785,10.61,5.238,10.61z"/>
	</g>
	<g>
		<path fill="#FFFFFF" d="M38.803,21.326c0.078-0.012,0.119,0.016,0.135,0.066c-0.32,4.596-2.07,8.053-4.361,10.805
			c-0.287,0.344-0.539,0.932-1.074,0.938c-0.199-0.498,0.265-0.986,0.469-1.408c0.652-1.348,1.293-2.992,1.546-4.832
			C36.98,25.408,37.969,23.443,38.803,21.326z"/>
		<path fill="#FFFFFF" d="M33.5,33.139v-0.002c-0.152-0.377,0.078-0.756,0.283-1.088c0.068-0.113,0.133-0.221,0.186-0.324
			c0.824-1.705,1.33-3.285,1.543-4.83c1.611-1.641,2.604-3.838,3.289-5.57c0.015-0.004,0.023-0.004,0.035-0.004
			c0.056,0,0.092,0.021,0.105,0.07c-0.285,4.086-1.713,7.621-4.363,10.809c-0.066,0.076-0.129,0.168-0.195,0.264
			c-0.219,0.312-0.467,0.67-0.881,0.676H33.5L33.5,33.139L33.5,33.139z M38.836,21.326c-0.01,0-0.021,0.002-0.033,0.004
			c-0.682,1.729-1.672,3.93-3.284,5.568c-0.212,1.545-0.718,3.125-1.543,4.83c-0.052,0.104-0.117,0.213-0.187,0.324
			c-0.203,0.33-0.434,0.707-0.285,1.08c0.41-0.008,0.656-0.361,0.873-0.674c0.066-0.096,0.131-0.186,0.195-0.264
			c2.65-3.188,4.076-6.719,4.361-10.803C38.92,21.348,38.889,21.326,38.836,21.326z"/>
	</g>
	<g>
		<path fill="#FFFFFF" d="M5.316,24.479c1.249,2.486,2.945,4.525,5.1,6.107c0.02,2.105,0.795,3.814,1.342,5.166
			c-0.855,0.191-1.865,0-2.616-0.133c-2.259-1.602-4.251-3.762-5.704-6.377c-0.745-1.34-1.445-2.59-1.41-4.697
			C3.006,24.641,4.435,24.695,5.316,24.479z"/>
		<path fill="#FFFFFF" d="M10.953,35.838c-0.601,0-1.223-0.109-1.723-0.197l-0.089-0.018c-2.333-1.652-4.308-3.857-5.707-6.377
			l-0.011-0.02c-0.738-1.328-1.437-2.584-1.398-4.682v-0.004h0.004c0.393,0.037,0.997,0.084,1.646,0.084
			c0.683,0,1.236-0.051,1.641-0.152c1.253,2.488,2.969,4.543,5.104,6.109c0.019,1.941,0.678,3.545,1.209,4.836
			c0.045,0.113,0.09,0.225,0.135,0.332v0.004l-0.004,0.002C11.521,35.811,11.25,35.838,10.953,35.838z M2.031,24.551
			c-0.035,2.094,0.661,3.348,1.398,4.672l0.011,0.02c1.399,2.52,3.372,4.723,5.703,6.377l0.088,0.014
			c0.5,0.088,1.121,0.199,1.722,0.199c0.295,0,0.563-0.027,0.801-0.08c-0.043-0.107-0.088-0.217-0.133-0.326
			c-0.531-1.293-1.189-2.896-1.207-4.838c-2.135-1.562-3.851-3.619-5.101-6.104c-0.401,0.1-0.954,0.15-1.64,0.15
			C3.027,24.635,2.426,24.59,2.031,24.551z"/>
	</g>
	<g>
		<path fill="#FFFFFF" d="M19.744,38.908c-0.037-0.1,0.078-0.348-0.066-0.336c2.621-0.602,4.99-1.451,6.441-3.221
			c2.902-0.119,5.289-0.754,6.912-2.148c0.816,0.279-0.385,1.004-0.873,1.41C29.248,37.035,24.76,39.303,19.744,38.908z"/>
		<path fill="#FFFFFF" d="M20.893,38.957c-0.383,0-0.77-0.016-1.148-0.045c-0.017-0.039-0.01-0.096-0.002-0.152
			c0.008-0.066,0.016-0.135-0.011-0.166c-0.011-0.014-0.028-0.018-0.054-0.018l-0.002-0.008c2.315-0.529,4.891-1.326,6.44-3.221
			c3.121-0.129,5.382-0.83,6.912-2.146c0.172,0.057,0.265,0.137,0.281,0.238c0.043,0.27-0.453,0.645-0.853,0.943
			c-0.109,0.086-0.215,0.162-0.297,0.232C30.594,35.92,26.355,38.957,20.893,38.957z M19.705,38.57
			c0.014,0.002,0.023,0.008,0.032,0.018c0.028,0.035,0.021,0.104,0.011,0.172c-0.007,0.057-0.014,0.111,0,0.146
			c0.375,0.029,0.762,0.043,1.146,0.043c5.459,0,9.696-3.033,11.264-4.338c0.084-0.07,0.188-0.148,0.3-0.23
			c0.395-0.301,0.889-0.674,0.848-0.939c-0.018-0.1-0.107-0.178-0.271-0.232c-1.529,1.318-3.793,2.021-6.912,2.148
			C24.576,37.24,22.014,38.039,19.705,38.57z"/>
	</g>
	<g>
		<path fill="#FFFFFF" d="M19.984,39c-10.477,0-19-8.521-19-18.999C0.984,9.524,9.508,1,19.984,1s19,8.524,19,19.001
			C38.984,30.477,30.461,39,19.984,39z M19.984,1.527c-10.186,0-18.473,8.288-18.473,18.474c0,10.185,8.287,18.472,18.473,18.472
			c10.188,0,18.473-8.287,18.473-18.472C38.457,9.814,30.172,1.527,19.984,1.527z"/>
	</g>
</g>
</svg>
