<?xml version="1.0" encoding="utf-8"?>
<!-- Generator: Adobe Illustrator 16.0.0, SVG Export Plug-In . SVG Version: 6.00 Build 0)  -->
<!DOCTYPE svg PUBLIC "-//W3C//DTD SVG 1.1//EN" "http://www.w3.org/Graphics/SVG/1.1/DTD/svg11.dtd">
<svg version="1.1" id="Layer_1" xmlns="http://www.w3.org/2000/svg" xmlns:xlink="http://www.w3.org/1999/xlink" x="0px" y="0px"
	 width="40px" height="40px" viewBox="0 0 40 40" enable-background="new 0 0 40 40" xml:space="preserve">
<g id="Your_Icon">
	<path fill="#FFFFFF" d="M6.139,20.617l6.539,0.023l3.319,5.61l-3.228,5.587L6.23,31.812l-3.319-5.608L6.139,20.617z M27.365,20.564
		l6.543,0.024l3.314,5.614l-3.229,5.584l-6.538-0.028l-3.314-5.606L27.365,20.564z M27.361,19.379l-3.362-5.543l3.177-5.65
		l6.538-0.107l3.362,5.543l-3.178,5.65L27.361,19.379z M16.645,13.412l-3.363-5.547l3.176-5.646l6.539-0.107l3.361,5.544
		l-3.176,5.651L16.645,13.412z M6.139,19.594l-3.363-5.543L5.952,8.4l6.539-0.106l3.362,5.543l-3.176,5.649L6.139,19.594z M1,19.998
		C1,30.495,9.506,39,20.002,39C30.494,39,39,30.495,39,19.998C39,9.506,30.494,1,20.002,1C9.506,1,1,9.506,1,19.998z M16.688,26.668
		l6.539,0.023l3.314,5.609l-3.229,5.59l-6.539-0.024l-3.315-5.611L16.688,26.668z"/>
</g>
</svg>
