<?xml version="1.0" encoding="utf-8"?>
<!-- Generator: Adobe Illustrator 16.0.0, SVG Export Plug-In . SVG Version: 6.00 Build 0)  -->
<!DOCTYPE svg PUBLIC "-//W3C//DTD SVG 1.1//EN" "http://www.w3.org/Graphics/SVG/1.1/DTD/svg11.dtd">
<svg version="1.1" id="Layer_1" xmlns="http://www.w3.org/2000/svg" xmlns:xlink="http://www.w3.org/1999/xlink" x="0px" y="0px"
	 width="40px" height="40px" viewBox="0 0 40 40" enable-background="new 0 0 40 40" xml:space="preserve">
<path fill="#FFFFFF" d="M37.937,18.897c-1.145-2.092-2.134-4.272-3.377-6.309c-2.201,1.309-4.701,2.785-7.229,4.207
	c1.149,2.301,2.474,4.527,3.743,6.761c1.212,2.129,2.529,4.23,3.08,6.65c1.127-2,2.348-3.941,3.562-5.891
	c0.488-0.781,1.026-1.627,1.233-2.537C39.206,20.65,38.44,19.817,37.937,18.897C37.563,18.216,38.065,19.132,37.937,18.897z"/>
<path fill="#FFFFFF" d="M31.581,27.229c-2.098-0.041-4.208,0.135-6.299-0.09l-0.428-0.047l-0.027-0.43
	c-0.021-0.326-0.016-0.682-0.006-1.041c-1.143,2.068-2.42,4.062-3.504,6.166l0.457,0.869c0.938,1.789,1.904,3.623,2.938,5.367
	c-0.003-0.641,0.017-1.305,0.119-1.908l0.083-0.484l0.488,0.061c2.008,0.262,4.457,0.232,6.104-1.129
	c0.874-0.723,1.339-1.771,1.452-2.885C33.138,29.969,32.304,28.693,31.581,27.229C30.862,27.215,31.715,27.498,31.581,27.229z"/>
<path fill="#FFFFFF" d="M11.455,35.818c2.383,0.051,4.767,0.277,7.151,0.211c-0.039-2.561-0.073-5.465-0.049-8.365
	c-2.568-0.146-5.156-0.107-7.729-0.119c-2.449-0.01-4.928,0.088-7.301-0.641c1.176,1.977,2.25,3.998,3.334,6.021
	c0.436,0.814,0.9,1.701,1.586,2.336C9.3,36.047,10.405,35.799,11.455,35.818C12.229,35.834,11.187,35.814,11.455,35.818z"/>
<path fill="#FFFFFF" d="M7.392,26.16c1.08-1.801,1.979-3.719,3.215-5.42l0.252-0.345l0.387,0.187
	c0.295,0.145,0.599,0.326,0.904,0.514c-1.225-2.02-2.317-4.123-3.602-6.109l-0.982-0.036c-2.019-0.075-4.09-0.152-6.119-0.123
	c0.558,0.317,1.123,0.665,1.596,1.054l0.381,0.314l-0.298,0.393c-1.224,1.612-2.419,3.75-2.06,5.857
	c0.19,1.117,0.871,2.043,1.781,2.695C4.241,26.145,5.761,26.057,7.392,26.16C7.761,25.543,7.092,26.141,7.392,26.16z"/>
<path fill="#FFFFFF" d="M10.28,4.526c-1.235,2.039-2.625,3.989-3.762,6.086c2.236,1.248,4.768,2.67,7.267,4.144
	c1.413-2.149,2.674-4.41,3.971-6.631c1.235-2.116,2.392-4.312,4.209-6c-2.299,0.028-4.588-0.054-6.883-0.127
	c-0.922-0.03-1.922-0.071-2.815,0.205C11.162,2.546,10.824,3.627,10.28,4.526C9.879,5.188,10.42,4.295,10.28,4.526z"/>
<path fill="#FFFFFF" d="M20.677,5.842c1.018,1.834,2.229,3.572,3.083,5.494l0.173,0.393l-0.354,0.24
	c-0.272,0.184-0.582,0.355-0.897,0.526c2.362-0.05,4.729,0.056,7.092-0.062l0.522-0.832c1.076-1.711,2.179-3.467,3.169-5.236
	c-0.553,0.324-1.138,0.641-1.711,0.854l-0.462,0.173l-0.19-0.455c-0.783-1.867-2.037-3.973-4.043-4.715
	c-1.062-0.395-2.203-0.269-3.224,0.191C22.267,3.122,21.581,4.483,20.677,5.842C21.024,6.471,20.844,5.591,20.677,5.842z"/>
</svg>
