<?xml version="1.0" encoding="utf-8"?>
<!-- Generator: Adobe Illustrator 16.0.0, SVG Export Plug-In . SVG Version: 6.00 Build 0)  -->
<!DOCTYPE svg PUBLIC "-//W3C//DTD SVG 1.1//EN" "http://www.w3.org/Graphics/SVG/1.1/DTD/svg11.dtd">
<svg version="1.1" id="Layer_1" xmlns="http://www.w3.org/2000/svg" xmlns:xlink="http://www.w3.org/1999/xlink" x="0px" y="0px"
	 width="40px" height="40px" viewBox="0 0 40 40" enable-background="new 0 0 40 40" xml:space="preserve">
<g>
	<rect x="18.713" y="17.408" fill="#FFFFFF" stroke="#FFFFFF" stroke-miterlimit="10" width="2.576" height="21.592"/>
</g>
<g>
	<path fill="#FFFFFF" stroke="#FFFFFF" stroke-miterlimit="10" d="M26.073,31.486v-2.147c4.617,0,8.373-3.756,8.373-8.373
		c0-4.272-3.2-7.849-7.443-8.317l-1.271-0.141l0.358-1.228c0.173-0.587,0.261-1.188,0.261-1.784c0-3.501-2.85-6.35-6.35-6.35
		c-3.501,0-6.35,2.849-6.35,6.35c0,0.596,0.088,1.195,0.26,1.784l0.359,1.228l-1.271,0.141c-4.244,0.47-7.443,4.045-7.443,8.318
		c0,4.617,3.756,8.373,8.373,8.373v2.146c-5.801,0-10.521-4.719-10.521-10.521c0-4.969,3.444-9.188,8.186-10.257
		c-0.059-0.402-0.089-0.809-0.089-1.213C11.505,4.811,15.317,1,20.001,1s8.495,3.811,8.495,8.496c0,0.404-0.029,0.811-0.089,1.213
		c4.74,1.068,8.186,5.288,8.186,10.257C36.593,26.768,31.874,31.486,26.073,31.486z"/>
</g>
<g>
	
		<rect x="22.532" y="18.539" transform="matrix(0.5638 0.8259 -0.8259 0.5638 28.4772 -9.6665)" fill="#FFFFFF" stroke="#FFFFFF" stroke-miterlimit="10" width="1.718" height="7.179"/>
</g>
<g>
	
		<rect x="13.749" y="24.536" transform="matrix(0.7071 0.7071 -0.7071 0.7071 23.0549 -4.8714)" fill="#FFFFFF" stroke="#FFFFFF" stroke-miterlimit="10" width="7.317" height="1.717"/>
</g>
</svg>
