<?xml version="1.0" encoding="utf-8"?>
<!-- Generator: Adobe Illustrator 16.0.0, SVG Export Plug-In . SVG Version: 6.00 Build 0)  -->
<!DOCTYPE svg PUBLIC "-//W3C//DTD SVG 1.1//EN" "http://www.w3.org/Graphics/SVG/1.1/DTD/svg11.dtd">
<svg version="1.1" id="Layer_1" xmlns="http://www.w3.org/2000/svg" xmlns:xlink="http://www.w3.org/1999/xlink" x="0px" y="0px"
	 width="40px" height="40px" viewBox="0 0 40 40" enable-background="new 0 0 40 40" xml:space="preserve">
<g>
	<path fill="#FFFFFF" d="M27.221,21.9H12.78c-1.049,0-1.899-0.853-1.899-1.9c0-1.049,0.851-1.9,1.899-1.9h14.441
		c1.049,0,1.898,0.852,1.898,1.9S28.27,21.9,27.221,21.9z"/>
</g>
<g>
	<path fill="#FFFFFF" d="M35.96,12.02H23.8c-1.676,0-3.04,1.364-3.04,3.041v1.899h3.801v-1.14H35.2v8.361h-10.64V23.04H20.76v1.899
		c0,1.677,1.364,3.041,3.04,3.041h12.16c1.677,0,3.04-1.364,3.04-3.041v-9.879C39,13.383,37.637,12.02,35.96,12.02z"/>
	<path fill="#FFFFFF" d="M15.439,24.182H4.8V15.82h10.64v1.14h3.801v-1.899c0-1.677-1.364-3.041-3.04-3.041H4.04
		C2.363,12.02,1,13.384,1,15.061v9.881c0,1.676,1.363,3.039,3.04,3.039H16.2c1.676,0,3.04-1.363,3.04-3.039v-1.9h-3.801V24.182z"/>
</g>
</svg>
