<?xml version="1.0" encoding="utf-8"?>
<!-- Generator: Adobe Illustrator 16.0.0, SVG Export Plug-In . SVG Version: 6.00 Build 0)  -->
<!DOCTYPE svg PUBLIC "-//W3C//DTD SVG 1.1//EN" "http://www.w3.org/Graphics/SVG/1.1/DTD/svg11.dtd">
<svg version="1.1" id="Layer_1" xmlns="http://www.w3.org/2000/svg" xmlns:xlink="http://www.w3.org/1999/xlink" x="0px" y="0px"
	 width="40px" height="40px" viewBox="0 0 40 40" enable-background="new 0 0 40 40" xml:space="preserve">
<path fill="#FFFFFF" d="M30.627,16.746h-1.22v-7.76C29.407,4.583,25.188,1,20,1s-9.407,3.583-9.407,7.986l0,0v7.76h-1.22
	c-1.67,0-3.036,1.365-3.036,3.035v16.183C6.337,37.635,7.703,39,9.373,39h21.254c1.671,0,3.036-1.366,3.036-3.036V19.781
	C33.663,18.111,32.297,16.746,30.627,16.746z M22.646,33.605h-5.293l1.067-5.707c-0.888-0.537-1.483-1.508-1.483-2.621
	c0-1.69,1.371-3.062,3.062-3.062s3.062,1.371,3.062,3.062c0,1.113-0.597,2.084-1.483,2.621L22.646,33.605z M25.376,16.746H14.625
	v-7.76l0,0c0-2.144,2.461-3.954,5.375-3.954s5.376,1.812,5.376,3.954V16.746z"/>
</svg>
