<?xml version="1.0" encoding="utf-8"?>
<!-- Generator: Adobe Illustrator 16.0.0, SVG Export Plug-In . SVG Version: 6.00 Build 0)  -->
<!DOCTYPE svg PUBLIC "-//W3C//DTD SVG 1.1//EN" "http://www.w3.org/Graphics/SVG/1.1/DTD/svg11.dtd">
<svg version="1.1" id="Your_Icon" xmlns="http://www.w3.org/2000/svg" xmlns:xlink="http://www.w3.org/1999/xlink" x="0px" y="0px"
	 width="40px" height="40px" viewBox="0 0 40 40" enable-background="new 0 0 40 40" xml:space="preserve">
<g>
	<path fill="#FFFFFF" d="M16.556,17.084c-0.012-0.014-0.021-0.023-0.029-0.036C16.534,17.061,16.544,17.07,16.556,17.084z"/>
	<path fill="#FFFFFF" d="M16.37,16.864c-0.01-0.013-0.021-0.022-0.03-0.034C16.351,16.842,16.36,16.854,16.37,16.864z"/>
	<path fill="#FFFFFF" d="M15.455,16.047L15.455,16.047c0.247-0.08,0.503-0.146,0.769-0.199
		C15.959,15.898,15.703,15.966,15.455,16.047z"/>
	<path fill="#FFFFFF" d="M16.72,17.307c-0.006-0.008-0.01-0.014-0.014-0.021C16.71,17.293,16.714,17.3,16.72,17.307z"/>
	<path fill="#FFFFFF" d="M17.312,17.761c-0.004,0.001-0.01,0.001-0.015,0.001C17.302,17.762,17.308,17.762,17.312,17.761z"/>
	<path fill="#FFFFFF" d="M16.826,15.756c0.069-0.009,0.139-0.016,0.208-0.021C16.964,15.74,16.896,15.747,16.826,15.756z"/>
	<path fill="#FFFFFF" d="M16.146,16.626c0.006,0.005,0.013,0.013,0.017,0.017C16.155,16.639,16.149,16.631,16.146,16.626z"/>
	<path fill="#FFFFFF" d="M16.228,15.846c0.086-0.018,0.172-0.031,0.262-0.047C16.401,15.812,16.313,15.828,16.228,15.846z"/>
	<path fill="#FFFFFF" d="M16.519,15.795c0.08-0.013,0.16-0.023,0.241-0.033C16.678,15.771,16.599,15.783,16.519,15.795z"/>
	<path fill="#FFFFFF" d="M14.319,19.982c0,0.006-0.002,0.012-0.002,0.018C14.317,19.994,14.319,19.989,14.319,19.982z"/>
	<path fill="#FFFFFF" d="M14.333,19.866c-0.002,0.003-0.002,0.005-0.002,0.008C14.331,19.871,14.331,19.869,14.333,19.866z"/>
	<path fill="#FFFFFF" d="M13.239,18.037c0.044,0.021,0.086,0.047,0.128,0.07C13.325,18.084,13.283,18.061,13.239,18.037z"/>
	<path fill="#FFFFFF" d="M14.388,19.627v-0.002V19.627z"/>
	<path fill="#FFFFFF" d="M13.83,18.451c0.003,0.003,0.006,0.005,0.009,0.008C13.836,18.456,13.833,18.454,13.83,18.451z"/>
	<path fill="#FFFFFF" d="M13.558,23.725c-0.062,0.02-0.125,0.039-0.189,0.059c-0.028,0.007-0.057,0.015-0.086,0.021
		c0.113-0.031,0.229-0.062,0.338-0.1l0,0C13.601,23.711,13.578,23.718,13.558,23.725z"/>
	<path fill="#FFFFFF" d="M12.793,17.844L12.793,17.844c0.067,0.023,0.134,0.051,0.196,0.076
		C12.925,17.895,12.86,17.867,12.793,17.844z"/>
	<path fill="#FFFFFF" d="M13.047,17.943c0.045,0.021,0.091,0.041,0.134,0.062C13.136,17.984,13.092,17.965,13.047,17.943z"/>
	<path fill="#FFFFFF" d="M13.585,18.25c0.084,0.061,0.163,0.125,0.234,0.191c-0.117-0.11-0.254-0.213-0.404-0.306
		c0.057,0.034,0.109,0.069,0.162,0.106C13.579,18.245,13.581,18.248,13.585,18.25z"/>
	<path fill="#FFFFFF" d="M14.375,19.461c0.002,0.012,0.004,0.023,0.005,0.035c0.004,0.043,0.008,0.086,0.008,0.129
		c0-0.1-0.013-0.197-0.033-0.292c0.004,0.008,0.004,0.017,0.006,0.022C14.366,19.391,14.372,19.427,14.375,19.461z"/>
	<path fill="#FFFFFF" d="M14.343,19.285c-0.009-0.034-0.017-0.068-0.027-0.104c0.002,0.008,0.006,0.019,0.008,0.025
		C14.331,19.232,14.335,19.26,14.343,19.285z"/>
	<path fill="#FFFFFF" d="M14.267,19.055c0.002,0.01,0.008,0.02,0.01,0.027c0.004,0.007,0.006,0.013,0.009,0.02
		c-0.022-0.057-0.048-0.111-0.077-0.166l0,0C14.229,18.975,14.247,19.014,14.267,19.055z"/>
	<path fill="#FFFFFF" d="M13.088,23.854c-0.024,0.006-0.048,0.012-0.071,0.017c-0.019,0.004-0.037,0.008-0.055,0.013
		c-0.054,0.012-0.105,0.022-0.161,0.032c-0.024,0.005-0.05,0.011-0.075,0.015c-0.006,0.002-0.013,0.002-0.019,0.004
		c0.192-0.035,0.382-0.076,0.565-0.125c-0.004,0.002-0.01,0.002-0.016,0.004C13.201,23.825,13.146,23.84,13.088,23.854z"/>
	<path fill="#FFFFFF" d="M14.138,18.816c0.006,0.009,0.01,0.017,0.014,0.023c-0.029-0.049-0.062-0.096-0.098-0.143
		c0.023,0.031,0.047,0.062,0.069,0.097C14.128,18.803,14.133,18.811,14.138,18.816z"/>
	<path fill="#FFFFFF" d="M13.946,18.57c0.035,0.037,0.066,0.074,0.096,0.113c0.001,0,0.002,0.002,0.004,0.002
		c-0.053-0.065-0.111-0.131-0.174-0.191c0.021,0.021,0.044,0.043,0.064,0.064C13.938,18.562,13.942,18.566,13.946,18.57z"/>
	<path fill="#FFFFFF" d="M17.313,15.718c-0.051,0.002-0.102,0.007-0.15,0.011C17.213,15.725,17.263,15.72,17.313,15.718z"/>
	<path fill="#FFFFFF" d="M12.272,17.32c-0.004,0-0.008,0-0.012,0C12.267,17.32,12.271,17.32,12.272,17.32z"/>
	<path fill="#FFFFFF" d="M11.71,21.994c0.012-0.001,0.021-0.001,0.029-0.003C11.651,21.996,11.565,22,11.476,22
		c0.064,0,0.127-0.001,0.189-0.004C11.681,21.995,11.694,21.994,11.71,21.994z"/>
	<path fill="#FFFFFF" d="M11.778,24.032c-0.101,0.005-0.201,0.008-0.303,0.008C11.578,24.04,11.679,24.037,11.778,24.032z"/>
	<path fill="#FFFFFF" d="M11.856,21.982c0.014,0,0.026-0.002,0.039-0.002c0.054-0.006,0.105-0.013,0.158-0.019
		c0,0,0.002,0,0.002-0.001c0.002,0,0.004,0,0.006,0l0,0c-0.084,0.012-0.168,0.02-0.256,0.025l0,0
		C11.825,21.984,11.84,21.984,11.856,21.982z"/>
	<path fill="#FFFFFF" d="M11.778,17.261L11.778,17.261c0.031,0.003,0.062,0.007,0.094,0.009
		C11.841,17.268,11.812,17.264,11.778,17.261L11.778,17.261z"/>
	<path fill="#FFFFFF" d="M14.008,18.115c0.021,0.019,0.041,0.035,0.062,0.054l0,0C14.048,18.15,14.026,18.134,14.008,18.115z"/>
	<path fill="#FFFFFF" d="M16.87,20.859c-0.003,0.006-0.006,0.011-0.008,0.016c-0.027,0.075-0.059,0.15-0.09,0.225
		c-0.004,0.006-0.006,0.012-0.01,0.017c-0.041,0.089-0.084,0.176-0.133,0.263c-0.005,0.01-0.011,0.018-0.016,0.026
		c-0.031,0.057-0.065,0.11-0.1,0.165c-0.009,0.014-0.017,0.025-0.023,0.039c0.201-0.312,0.355-0.647,0.459-0.998
		c-0.02,0.063-0.037,0.125-0.061,0.188C16.885,20.818,16.877,20.839,16.87,20.859z"/>
	<path fill="#FFFFFF" d="M14.731,19.939c-0.01-0.006-0.02-0.013-0.027-0.018c-0.012,0.066-0.016,0.135-0.016,0.202
		C14.707,20.062,14.722,20.002,14.731,19.939L14.731,19.939z"/>
	<path fill="#FFFFFF" d="M16.284,21.907c0.066-0.089,0.133-0.183,0.193-0.275c-0.009,0.013-0.016,0.023-0.022,0.036
		C16.401,21.749,16.344,21.829,16.284,21.907z"/>
	<path fill="#FFFFFF" d="M14.753,19.796C14.753,19.795,14.753,19.795,14.753,19.796L14.753,19.796
		c-0.005,0.048-0.012,0.097-0.021,0.144c0.012-0.045,0.017-0.092,0.021-0.14C14.752,19.798,14.753,19.797,14.753,19.796z"/>
	<path fill="#FFFFFF" d="M11.877,24.027c0.067-0.004,0.14-0.008,0.207-0.014c-0.065,0.006-0.133,0.01-0.2,0.014
		C11.881,24.027,11.877,24.027,11.877,24.027z"/>
	<path fill="#FFFFFF" d="M12.202,24.001c-0.012,0.001-0.023,0.003-0.036,0.004c0.073-0.007,0.146-0.015,0.218-0.024
		c-0.001,0-0.002,0.002-0.004,0.002C12.321,23.989,12.263,23.994,12.202,24.001z"/>
	<path fill="#FFFFFF" d="M16.987,20.477c-0.004,0.02-0.008,0.037-0.012,0.056c-0.004,0.01-0.008,0.02-0.01,0.028
		c0.033-0.119,0.061-0.24,0.079-0.362c-0.004,0.021-0.006,0.042-0.011,0.062C17.022,20.334,17.005,20.405,16.987,20.477z"/>
	<path fill="#FFFFFF" d="M12.592,17.393c0.007,0,0.013,0.004,0.021,0.006C12.604,17.395,12.599,17.393,12.592,17.393L12.592,17.393z
		"/>
	<path fill="#FFFFFF" d="M17.082,19.902c-0.001,0.027-0.004,0.052-0.007,0.078C17.078,19.954,17.081,19.93,17.082,19.902
		L17.082,19.902L17.082,19.902z"/>
	<polygon fill="#FFFFFF" points="13.104,17.564 13.106,17.564 13.106,17.564 	"/>
	<path fill="#FFFFFF" d="M13.748,17.912c0.021,0.015,0.042,0.031,0.063,0.047C13.792,17.943,13.771,17.927,13.748,17.912
		L13.748,17.912z"/>
	<polygon fill="#FFFFFF" points="14.61,18.912 14.61,18.916 14.61,18.913 	"/>
	<path fill="#FFFFFF" d="M13.504,17.76c0.005,0.002,0.011,0.006,0.015,0.008c0,0,0,0-0.002,0
		C13.513,17.764,13.508,17.762,13.504,17.76z"/>
	<path fill="#FFFFFF" d="M12.479,23.967c0.065-0.011,0.131-0.019,0.195-0.029c-0.057,0.01-0.113,0.017-0.17,0.025
		C12.498,23.965,12.489,23.965,12.479,23.967z"/>
	<path fill="#FFFFFF" d="M14.116,18.214C14.114,18.214,14.114,18.214,14.116,18.214c0.045,0.045,0.089,0.091,0.132,0.138l0,0
		C14.205,18.305,14.162,18.259,14.116,18.214z"/>
	<path fill="#FFFFFF" d="M14.256,18.359c0.021,0.023,0.038,0.05,0.058,0.072C14.295,18.408,14.276,18.385,14.256,18.359
		L14.256,18.359z"/>
	<path fill="#FFFFFF" d="M24.972,24.072c-0.068-0.041-0.133-0.083-0.197-0.127c-0.002,0-0.002-0.002-0.004-0.002
		c-0.022-0.014-0.047-0.029-0.069-0.045l0,0c-0.151-0.104-0.294-0.213-0.433-0.326c0-0.002-0.002-0.002-0.002-0.002
		c-0.016-0.014-0.031-0.025-0.048-0.039c-0.144-0.121-0.28-0.254-0.407-0.389c0,0,0,0,0-0.002c-0.008-0.007-0.017-0.015-0.023-0.022
		c-0.062-0.065-0.122-0.136-0.18-0.204l0,0c-0.008-0.012-0.015-0.021-0.023-0.03c0,0,0,0,0-0.001
		c-0.117-0.144-0.229-0.296-0.326-0.451l0,0l0,0c-0.001,0-0.002,0-0.004,0c-0.059,0.012-0.115,0.02-0.177,0.027
		c-0.013,0.001-0.024,0.005-0.037,0.007c-0.048,0.007-0.099,0.013-0.146,0.015c-0.017,0.002-0.035,0.004-0.053,0.006
		c-0.047,0.005-0.092,0.008-0.14,0.011c-0.017,0.001-0.035,0.002-0.052,0.003c-0.063,0.002-0.127,0.006-0.19,0.006h-4.86
		c-0.568,0-1.104-0.107-1.572-0.292v-0.001c0,0-0.002,0-0.002-0.001l0,0c-0.094-0.038-0.187-0.078-0.273-0.122l0,0l0,0
		c-0.051-0.025-0.102-0.051-0.148-0.078c-0.002-0.001-0.004-0.002-0.006-0.003v-0.001c-0.218-0.121-0.414-0.262-0.584-0.419
		c0,0,0,0,0-0.001c-0.006-0.005-0.012-0.011-0.016-0.014c-0.002,0-0.002-0.001-0.002-0.001c-0.029-0.027-0.059-0.058-0.087-0.087
		c-0.003-0.004-0.007-0.006-0.009-0.01l0,0c-0.158-0.164-0.289-0.344-0.385-0.533v-0.002c-0.002-0.002-0.004-0.006-0.006-0.01
		c-0.02-0.039-0.037-0.078-0.054-0.117c0-0.002,0-0.002,0-0.004l0,0c-0.024-0.057-0.046-0.113-0.063-0.174
		c-0.006-0.017-0.012-0.033-0.016-0.05c-0.006-0.021-0.011-0.043-0.016-0.063c-0.004-0.017-0.008-0.032-0.012-0.049
		c-0.006-0.022-0.009-0.047-0.013-0.067c-0.003-0.017-0.006-0.031-0.008-0.048c-0.003-0.024-0.006-0.051-0.009-0.075
		c-0.002-0.015-0.004-0.026-0.004-0.04c-0.002-0.038-0.004-0.077-0.004-0.116c0-0.043,0.002-0.085,0.004-0.127
		c0.002-0.006,0.002-0.012,0.002-0.017c0.004-0.037,0.009-0.073,0.014-0.109c0-0.003,0.001-0.005,0.001-0.008
		c0.013-0.081,0.03-0.161,0.056-0.239l0,0c0,0,0-0.001,0-0.002c0-0.044-0.005-0.086-0.009-0.129
		c-0.001-0.013-0.003-0.022-0.004-0.035c-0.004-0.034-0.01-0.069-0.017-0.104c-0.002-0.008-0.002-0.016-0.006-0.023
		c-0.002-0.016-0.008-0.032-0.012-0.047c-0.008-0.025-0.014-0.053-0.021-0.077c-0.002-0.008-0.006-0.017-0.008-0.024
		c-0.01-0.026-0.021-0.055-0.03-0.082c-0.003-0.006-0.005-0.013-0.007-0.02c-0.006-0.01-0.01-0.02-0.014-0.027
		c-0.018-0.041-0.037-0.08-0.058-0.121l0,0c-0.017-0.03-0.037-0.062-0.056-0.093c-0.004-0.008-0.01-0.016-0.014-0.022
		c-0.005-0.008-0.011-0.016-0.015-0.022c-0.021-0.032-0.045-0.065-0.07-0.098c-0.002-0.003-0.004-0.007-0.008-0.011
		c0-0.002-0.002-0.002-0.003-0.004c-0.03-0.039-0.062-0.076-0.096-0.112c-0.002-0.005-0.008-0.009-0.01-0.013
		c-0.021-0.021-0.043-0.043-0.064-0.064c-0.012-0.012-0.021-0.023-0.033-0.035c-0.004-0.003-0.006-0.005-0.009-0.008
		s-0.009-0.005-0.011-0.01c-0.072-0.066-0.15-0.131-0.234-0.191c-0.003-0.002-0.007-0.005-0.01-0.007
		c-0.053-0.037-0.105-0.072-0.162-0.106c-0.016-0.011-0.032-0.02-0.049-0.027c-0.041-0.024-0.084-0.049-0.127-0.071
		c-0.02-0.01-0.039-0.021-0.06-0.03c-0.044-0.021-0.089-0.042-0.134-0.062c-0.02-0.009-0.038-0.017-0.059-0.025
		c-0.062-0.026-0.129-0.052-0.195-0.075c-0.516,0.666-0.812,1.446-0.812,2.282c0,0.093,0.006,0.185,0.014,0.276
		c0.002,0.025,0.005,0.052,0.008,0.078c0.007,0.07,0.016,0.14,0.027,0.207c0.004,0.024,0.006,0.048,0.012,0.072
		c0.016,0.09,0.035,0.178,0.059,0.266c0.004,0.013,0.008,0.021,0.012,0.033c0.021,0.078,0.045,0.154,0.07,0.229
		c0.01,0.024,0.018,0.047,0.025,0.069c0.025,0.07,0.054,0.142,0.085,0.21c0.008,0.015,0.013,0.032,0.021,0.047
		c0.039,0.086,0.08,0.168,0.127,0.251c0.004,0.01,0.01,0.018,0.016,0.025l0,0c0.001,0.002,0.003,0.006,0.004,0.008
		c0,0.002,0,0.003,0,0.003c0.041,0.069,0.083,0.141,0.127,0.21c0.003,0.003,0.006,0.008,0.007,0.013
		c0.005,0.006,0.009,0.013,0.013,0.017c0.006,0.011,0.012,0.017,0.017,0.023c0.049,0.074,0.103,0.148,0.157,0.221
		c0.002,0.004,0.004,0.008,0.006,0.012c0.062,0.078,0.125,0.156,0.191,0.23c0.008,0.012,0.016,0.018,0.024,0.026
		c0.06,0.065,0.12,0.133,0.185,0.194c0.012,0.013,0.021,0.021,0.032,0.032c0.146,0.142,0.302,0.278,0.472,0.407
		c0.006,0.007,0.015,0.014,0.021,0.016c0.08,0.062,0.162,0.119,0.246,0.176c0.006,0.007,0.012,0.011,0.018,0.014
		c0.182,0.12,0.372,0.23,0.573,0.334c0.008,0.005,0.017,0.009,0.024,0.013c0.098,0.052,0.197,0.099,0.299,0.144
		c0.81,0.354,1.74,0.558,2.732,0.558h4.858c0.106,0,0.212-0.003,0.315-0.008c0.031-0.001,0.062-0.004,0.095-0.005
		c0.073-0.006,0.147-0.01,0.22-0.016c0.035-0.002,0.066-0.008,0.102-0.012c0.071-0.009,0.144-0.015,0.215-0.025
		c0.031-0.002,0.062-0.008,0.091-0.013c0.077-0.014,0.155-0.024,0.231-0.039c0.021-0.003,0.043-0.008,0.062-0.012
		c0.097-0.017,0.191-0.038,0.286-0.063c0.002,0,0.004,0,0.006,0c0.308-0.074,0.603-0.166,0.885-0.277
		C24.972,24.074,24.972,24.074,24.972,24.072L24.972,24.072C24.972,24.073,24.972,24.073,24.972,24.072L24.972,24.072z"/>
	<path fill="#FFFFFF" d="M17.034,15.734c-0.069,0.006-0.139,0.013-0.208,0.021c-0.022,0.002-0.046,0.003-0.067,0.006
		c-0.081,0.011-0.16,0.021-0.24,0.033c-0.011,0.002-0.021,0.003-0.029,0.005c-0.09,0.014-0.176,0.029-0.262,0.047
		c-0.002,0-0.002,0-0.004,0c-0.266,0.053-0.521,0.12-0.769,0.201c0.249,0.178,0.479,0.37,0.688,0.578
		c0.006,0.006,0.012,0.012,0.018,0.018c0.062,0.062,0.121,0.123,0.178,0.188c0.012,0.012,0.02,0.023,0.03,0.035
		c0.053,0.06,0.104,0.119,0.153,0.183c0.012,0.013,0.021,0.024,0.029,0.037c0.053,0.065,0.104,0.133,0.151,0.203
		c0.005,0.006,0.01,0.013,0.014,0.019c0.108,0.157,0.207,0.318,0.294,0.484c0.094-0.012,0.19-0.021,0.285-0.027
		c0.004,0,0.01,0,0.014-0.002c0.096-0.006,0.191-0.009,0.289-0.009h4.859c0.109,0,0.219,0.004,0.326,0.013h0.001
		c0.002,0,0,0,0.002,0c0,0,0,0,0.001,0c0.029,0,0.059,0.004,0.087,0.008c0,0,0.001,0,0.002,0s0.001,0,0.002,0
		c0.021,0.002,0.044,0.004,0.065,0.006l0,0c0.002,0,0.002,0,0.002,0c0.025,0.002,0.053,0.006,0.078,0.01c0.002,0,0.006,0,0.008,0
		c0.002,0.001,0.004,0.001,0.005,0.001c0.091,0.012,0.181,0.026,0.269,0.043c0.012,0.002,0.021,0.004,0.029,0.006
		c0.001,0,0.002,0.001,0.004,0.001c0.001,0,0.002,0,0.003,0c0.073,0.016,0.144,0.031,0.216,0.051l0,0c0,0,0,0,0.002,0
		c0.023,0.006,0.047,0.012,0.071,0.02c0.001,0.001,0.002,0.001,0.004,0.001c0.001,0,0.001,0,0.003,0
		c0.125,0.034,0.245,0.075,0.361,0.12c0,0,0.002,0,0.002,0.001c0.003,0,0.006,0.002,0.009,0.003l0,0
		c0.097,0.038,0.19,0.078,0.279,0.122c0.001,0,0.001,0.001,0.003,0.001l0,0c0.001,0,0.001,0,0.002,0.001
		c0.602,0.293,1.061,0.727,1.291,1.233l0,0l0,0l0,0c0.006,0.015,0.014,0.028,0.018,0.043c0.01,0.021,0.018,0.043,0.026,0.065l0,0
		l0,0c0.006,0.017,0.013,0.032,0.017,0.049c0,0,0,0,0,0.001l0,0c0.026,0.073,0.047,0.148,0.063,0.225l0,0l0,0l0,0
		c0.005,0.023,0.009,0.047,0.013,0.068c0,0,0,0,0,0.001l0,0c0,0.003,0,0.007,0.002,0.009c0.014,0.09,0.021,0.181,0.021,0.272
		c0,0.021-0.001,0.043-0.002,0.065l0,0c-0.004,0.068-0.012,0.137-0.021,0.203l0,0c0.014,0.143,0.045,0.278,0.096,0.41
		c0.004,0.01,0.009,0.019,0.014,0.026c0.053,0.127,0.122,0.247,0.21,0.36c0.002,0.004,0.006,0.011,0.01,0.014
		c0.027,0.034,0.056,0.066,0.085,0.102c0.012,0.012,0.02,0.021,0.028,0.031c0.03,0.032,0.062,0.062,0.095,0.096c0,0,0,0,0.001,0
		c0.068,0.063,0.144,0.127,0.224,0.186c0.014,0.01,0.025,0.02,0.039,0.027c0.037,0.024,0.072,0.049,0.109,0.072
		c0.018,0.012,0.036,0.022,0.055,0.033c0.039,0.021,0.078,0.046,0.116,0.066c0.005,0.002,0.013,0.006,0.017,0.009
		c0.086,0.045,0.176,0.086,0.269,0.124c0.021,0.009,0.041,0.017,0.062,0.023c0.043,0.019,0.09,0.033,0.133,0.049
		c0.023,0.008,0.047,0.013,0.07,0.021c0.045,0.014,0.09,0.029,0.141,0.04c0.27-0.425,0.455-0.892,0.537-1.382
		c0-0.003,0.002-0.005,0.002-0.008c0.013-0.079,0.023-0.159,0.031-0.239c0-0.003,0-0.005,0-0.008
		c0.008-0.082,0.014-0.165,0.014-0.249c0.001-0.025,0.003-0.053,0.003-0.078c0-0.071-0.003-0.143-0.007-0.214
		c0-0.022-0.004-0.046-0.006-0.068c-0.002-0.021-0.004-0.041-0.008-0.062c-0.002-0.027-0.004-0.055-0.008-0.08
		c-0.004-0.027-0.008-0.055-0.013-0.082c-0.007-0.042-0.013-0.084-0.021-0.126c-0.004-0.022-0.009-0.044-0.014-0.064
		c-0.001-0.007-0.002-0.013-0.004-0.02c-0.001-0.009-0.003-0.015-0.005-0.022c-0.009-0.033-0.015-0.066-0.022-0.1
		c-0.004-0.016-0.008-0.031-0.012-0.047c-0.004-0.012-0.007-0.024-0.011-0.037c-0.013-0.041-0.024-0.082-0.037-0.123
		c-0.009-0.018-0.013-0.036-0.017-0.055c-0.004-0.008-0.006-0.017-0.008-0.023c-0.015-0.045-0.033-0.089-0.05-0.134
		c-0.009-0.019-0.014-0.035-0.021-0.052c-0.002-0.004-0.002-0.008-0.002-0.012c-0.026-0.064-0.053-0.127-0.082-0.188
		c-0.012-0.021-0.021-0.043-0.032-0.063c-0.013-0.026-0.026-0.053-0.038-0.079c-0.008-0.015-0.014-0.029-0.023-0.045
		c-0.013-0.025-0.029-0.053-0.043-0.078c-0.021-0.035-0.039-0.07-0.061-0.104c-0.016-0.028-0.034-0.058-0.053-0.084
		c-0.021-0.032-0.041-0.063-0.062-0.095c-0.018-0.029-0.038-0.059-0.059-0.086c-0.016-0.021-0.032-0.043-0.047-0.063
		c-0.008-0.009-0.014-0.019-0.019-0.024s-0.009-0.011-0.013-0.015c-0.018-0.024-0.035-0.048-0.055-0.071
		c-0.021-0.027-0.045-0.056-0.067-0.084c-0.022-0.027-0.046-0.057-0.069-0.084c-0.01-0.009-0.015-0.018-0.023-0.025
		c-0.014-0.016-0.028-0.031-0.043-0.049c-0.002,0-0.002-0.002-0.004-0.004c-0.039-0.043-0.082-0.086-0.125-0.129
		c-0.014-0.014-0.026-0.027-0.039-0.043c-0.002-0.002-0.004-0.005-0.008-0.009c-0.017-0.017-0.033-0.03-0.047-0.048
		c-0.033-0.03-0.066-0.061-0.1-0.09c-0.014-0.012-0.023-0.022-0.038-0.034c-0.009-0.008-0.017-0.017-0.026-0.024
		c-0.033-0.029-0.068-0.06-0.104-0.09c-0.013-0.012-0.028-0.021-0.042-0.035c-0.008-0.006-0.016-0.013-0.021-0.019
		c-0.014-0.011-0.027-0.021-0.041-0.031l0,0c-0.022-0.019-0.045-0.036-0.066-0.054c-0.012-0.008-0.021-0.016-0.032-0.021
		c-0.013-0.011-0.024-0.02-0.037-0.026c-0.037-0.029-0.077-0.058-0.116-0.085c-0.008-0.006-0.016-0.012-0.023-0.016
		c-0.014-0.011-0.026-0.021-0.041-0.027c-0.024-0.02-0.051-0.035-0.077-0.053c-0.017-0.012-0.033-0.021-0.05-0.033
		c-0.01-0.004-0.018-0.01-0.025-0.016c-0.008-0.005-0.016-0.011-0.025-0.015c-0.014-0.011-0.031-0.019-0.047-0.027
		c-0.066-0.042-0.136-0.083-0.207-0.122l0,0l-0.002,0.002c-0.145-0.078-0.291-0.154-0.445-0.225c0-0.001-0.002-0.002-0.006-0.002
		c-0.011-0.005-0.02-0.01-0.028-0.014c-0.005-0.002-0.009-0.004-0.013-0.006c-0.014-0.006-0.024-0.011-0.037-0.016
		c-0.043-0.02-0.088-0.037-0.131-0.055c-0.018-0.008-0.035-0.014-0.053-0.021c-0.055-0.021-0.109-0.042-0.166-0.062c0,0,0,0-0.001,0
		l0,0h-0.001c-0.017-0.007-0.037-0.015-0.056-0.021c-0.056-0.02-0.112-0.038-0.167-0.056c-0.002-0.001-0.006-0.002-0.006-0.002
		c-0.002-0.001-0.006-0.002-0.008-0.003c-0.014-0.005-0.026-0.009-0.039-0.013c-0.063-0.021-0.125-0.039-0.189-0.058
		c-0.001,0-0.002,0-0.005,0c0,0-0.001,0-0.001-0.001c-0.002,0-0.003-0.001-0.004-0.001c-0.1-0.026-0.198-0.051-0.299-0.074
		c-0.024-0.006-0.049-0.012-0.074-0.017c-0.104-0.023-0.205-0.043-0.311-0.062c-0.188-0.031-0.379-0.056-0.572-0.072
		c-0.006,0-0.01-0.002-0.014-0.002c-0.088-0.006-0.175-0.012-0.262-0.016c-0.014-0.001-0.025-0.002-0.04-0.003
		c-0.101-0.005-0.198-0.006-0.298-0.006h-4.859c-0.097,0-0.191,0.001-0.285,0.005c-0.052,0.002-0.102,0.006-0.15,0.01
		C17.12,15.729,17.076,15.73,17.034,15.734z"/>
	<path fill="#FFFFFF" d="M13.558,23.725c0.021-0.007,0.041-0.014,0.062-0.02c0.002-0.001,0.003-0.001,0.003-0.001s0,0,0-0.001
		c-0.251-0.18-0.483-0.373-0.695-0.583c-0.016-0.015-0.03-0.032-0.048-0.05c-0.053-0.055-0.105-0.108-0.156-0.164
		c-0.014-0.016-0.025-0.031-0.039-0.047c-0.115-0.133-0.225-0.269-0.322-0.409c-0.11-0.157-0.209-0.32-0.297-0.488c0,0,0,0-0.002,0
		H12.06c-0.002,0.001-0.004,0.001-0.004,0.001c-0.053,0.007-0.104,0.012-0.156,0.018c-0.015,0.002-0.027,0.002-0.041,0.004
		c-0.017,0.002-0.032,0.002-0.049,0.004l0,0c-0.022,0.001-0.045,0.003-0.066,0.004c-0.012,0.002-0.021,0.002-0.03,0.003
		c-0.015,0-0.028,0.001-0.045,0.002C11.604,21.999,11.542,22,11.479,22h-4.86c-1.812,0-3.286-1.062-3.286-2.373
		s1.475-2.375,3.286-2.375h4.86c0.103,0,0.203,0.004,0.301,0.012h0.002c0,0,0,0,0.002,0c0.029,0.002,0.061,0.006,0.092,0.008
		c0.132,0.013,0.264,0.027,0.391,0.052c0.004,0.001,0.006,0.001,0.01,0.002c0.107,0.02,0.216,0.042,0.317,0.067l0,0
		c0.009,0.002,0.015,0.004,0.021,0.008c0.084,0.021,0.164,0.045,0.242,0.072c0.002,0,0.002,0,0.002,0s0,0,0.002,0
		c0.027,0.01,0.054,0.021,0.08,0.029c0.058,0.021,0.115,0.042,0.17,0.064l0,0l0,0c0.141,0.06,0.271,0.123,0.396,0.194
		c0.004,0.001,0.01,0.005,0.014,0.007h0.002c0.078,0.047,0.156,0.094,0.229,0.146c0.002,0,0.002,0,0.002,0
		c0.021,0.015,0.041,0.03,0.062,0.048c0.067,0.049,0.133,0.102,0.195,0.156c0.021,0.018,0.04,0.035,0.061,0.053l0,0
		c0.017,0.016,0.033,0.029,0.049,0.045l0,0c0.046,0.045,0.09,0.09,0.132,0.139l0,0c0.003,0.002,0.006,0.006,0.008,0.008l0,0
		c0.021,0.023,0.039,0.048,0.06,0.072c0.121,0.15,0.221,0.311,0.295,0.479l0,0c0,0.001,0,0.003,0,0.004
		c0.025,0.057,0.049,0.113,0.066,0.174c0.004,0.01,0.008,0.018,0.01,0.028c0.006,0.021,0.013,0.042,0.017,0.062
		c0.005,0.019,0.011,0.036,0.015,0.053l0,0c0.01,0.045,0.021,0.091,0.025,0.136c0,0,0,0,0,0.001c0.006,0.037,0.01,0.072,0.013,0.109
		c0,0.002,0,0.004,0,0.006v0.002c0,0.004,0,0.008,0.001,0.011c0,0,0,0,0,0.001c0.004,0.042,0.006,0.084,0.006,0.127
		c0,0.059-0.004,0.113-0.01,0.17l0,0l0,0c0,0.001-0.001,0.003-0.001,0.005c-0.004,0.046-0.011,0.093-0.021,0.14l0,0
		c-0.012,0.062-0.024,0.125-0.043,0.187l0,0v0.001c0,0.775,0.65,1.45,1.597,1.78c0.06-0.078,0.116-0.158,0.17-0.24
		c0.009-0.013,0.017-0.024,0.024-0.037c0.004-0.007,0.009-0.015,0.013-0.021c0.008-0.014,0.017-0.026,0.022-0.039
		c0.034-0.055,0.068-0.108,0.102-0.166c0.005-0.01,0.011-0.018,0.015-0.028c0.048-0.085,0.093-0.171,0.134-0.261
		c0.002-0.006,0.004-0.014,0.008-0.018c0.033-0.072,0.062-0.146,0.091-0.224c0.002-0.006,0.005-0.013,0.007-0.017
		c0.008-0.021,0.016-0.039,0.021-0.061c0.022-0.062,0.041-0.125,0.061-0.188c0.004-0.019,0.011-0.034,0.016-0.053
		c0.002-0.009,0.008-0.02,0.01-0.029c0.004-0.018,0.008-0.035,0.013-0.055c0.019-0.07,0.034-0.143,0.048-0.216
		c0.004-0.021,0.008-0.042,0.01-0.063c0.014-0.071,0.021-0.145,0.03-0.217c0.003-0.024,0.006-0.051,0.008-0.076l0,0l0,0
		c0.007-0.092,0.013-0.185,0.013-0.277c0-2.434-2.521-4.414-5.619-4.414H6.625c-3.099,0-5.619,1.98-5.619,4.414
		c0,2.436,2.521,4.415,5.619,4.415h4.858c0.103,0,0.203-0.004,0.305-0.008c0.031-0.003,0.062-0.005,0.095-0.007
		c0.003,0,0.007,0,0.009,0c0.066-0.006,0.135-0.01,0.2-0.013c0.026-0.004,0.054-0.007,0.082-0.01
		c0.013-0.001,0.022-0.003,0.036-0.004c0.061-0.008,0.12-0.013,0.18-0.021c0.002,0,0.002,0,0.004,0
		c0.03-0.004,0.063-0.011,0.096-0.014c0.009-0.001,0.018-0.002,0.025-0.003c0.057-0.01,0.113-0.019,0.168-0.026
		c0.012-0.002,0.021-0.004,0.031-0.007c0.008-0.001,0.014-0.003,0.02-0.004c0.023-0.005,0.05-0.01,0.074-0.014
		c0.055-0.011,0.107-0.021,0.161-0.033c0.019-0.004,0.037-0.009,0.056-0.013c0.022-0.006,0.047-0.012,0.07-0.016
		c0.059-0.014,0.113-0.027,0.17-0.041c0.004-0.002,0.01-0.005,0.016-0.006c0.002-0.001,0.006-0.002,0.01-0.002
		c0.027-0.008,0.059-0.016,0.086-0.023C13.433,23.764,13.495,23.743,13.558,23.725z"/>
	<path fill="#FFFFFF" d="M26.446,16.277c-0.021,0.007-0.041,0.014-0.062,0.02c-0.001,0.001-0.002,0.001-0.004,0.001c0,0,0,0,0,0.001
		c0.251,0.18,0.484,0.372,0.696,0.583c0.016,0.017,0.032,0.032,0.047,0.05c0.054,0.055,0.106,0.108,0.157,0.164
		c0.013,0.016,0.025,0.031,0.039,0.047c0.115,0.133,0.224,0.269,0.32,0.408c0.111,0.158,0.211,0.321,0.299,0.489l0,0
		c0.002,0,0.004,0,0.006,0c0.002-0.001,0.002-0.001,0.002-0.001c0.053-0.007,0.104-0.014,0.158-0.018
		c0.014-0.002,0.027-0.002,0.041-0.004c0.015,0,0.031-0.002,0.049-0.002l0,0c0.021-0.002,0.043-0.005,0.065-0.007
		c0.011-0.001,0.019-0.001,0.03-0.002c0.014,0,0.029-0.001,0.044-0.002c0.063-0.003,0.126-0.004,0.19-0.004h4.858
		c1.812,0,3.286,1.063,3.286,2.373c0,1.312-1.477,2.376-3.286,2.376h-4.858c-0.104,0-0.205-0.004-0.305-0.012l0,0
		c-0.001,0-0.001,0-0.001,0c-0.03-0.002-0.062-0.006-0.092-0.01c-0.134-0.012-0.263-0.027-0.39-0.052
		c-0.004,0-0.008-0.001-0.012-0.002c-0.107-0.019-0.216-0.04-0.32-0.067l0,0c-0.006-0.002-0.012-0.004-0.018-0.006
		c-0.084-0.021-0.166-0.045-0.242-0.074c0,0,0,0-0.002,0l0,0c-0.027-0.008-0.055-0.02-0.08-0.029c-0.059-0.02-0.115-0.04-0.17-0.064
		l0,0c-0.002,0-0.002,0-0.004,0c-0.138-0.06-0.269-0.121-0.396-0.192c-0.005-0.002-0.009-0.005-0.013-0.007c0,0,0,0-0.002,0
		c-0.078-0.047-0.155-0.096-0.229-0.146l0,0c-0.021-0.015-0.042-0.031-0.063-0.047c-0.067-0.049-0.135-0.102-0.194-0.156
		c-0.021-0.018-0.041-0.035-0.062-0.054l0,0c-0.016-0.015-0.033-0.029-0.049-0.044l0,0c-0.046-0.045-0.09-0.09-0.132-0.139l0,0
		c-0.003-0.002-0.007-0.006-0.009-0.01l0,0c-0.021-0.023-0.038-0.047-0.059-0.07c-0.121-0.151-0.222-0.312-0.295-0.479l0,0
		c0-0.001,0-0.002-0.003-0.004c-0.022-0.058-0.046-0.114-0.063-0.174c-0.004-0.009-0.008-0.019-0.012-0.028
		c-0.006-0.021-0.011-0.042-0.015-0.062c-0.005-0.018-0.012-0.036-0.015-0.053l0,0c-0.01-0.045-0.018-0.09-0.025-0.137l0,0
		c-0.005-0.037-0.009-0.074-0.013-0.109c0-0.004,0-0.004,0-0.006v-0.002c0-0.004-0.001-0.008-0.001-0.012l0,0
		c-0.004-0.043-0.008-0.085-0.008-0.128c0-0.058,0.006-0.113,0.011-0.169l0,0c0,0,0,0,0-0.001s0.002-0.003,0.002-0.004
		c0.004-0.048,0.011-0.095,0.019-0.142l0,0c0.012-0.062,0.025-0.123,0.043-0.186l0,0v-0.001c0-0.776-0.649-1.449-1.596-1.78
		c-0.061,0.078-0.115,0.158-0.171,0.239c-0.008,0.015-0.015,0.024-0.022,0.037c-0.004,0.008-0.01,0.015-0.013,0.022
		c-0.009,0.012-0.017,0.024-0.024,0.037c-0.032,0.057-0.068,0.109-0.101,0.166c-0.005,0.01-0.01,0.018-0.017,0.027
		c-0.047,0.086-0.09,0.173-0.131,0.262c-0.002,0.006-0.006,0.014-0.008,0.018c-0.033,0.074-0.064,0.147-0.093,0.224
		c-0.001,0.007-0.005,0.012-0.006,0.017c-0.007,0.021-0.017,0.039-0.022,0.062c-0.021,0.062-0.039,0.124-0.059,0.188
		c-0.005,0.018-0.014,0.033-0.018,0.051c-0.002,0.01-0.006,0.02-0.008,0.028c-0.004,0.02-0.008,0.037-0.014,0.056
		c-0.018,0.072-0.035,0.144-0.05,0.217c-0.003,0.021-0.006,0.042-0.011,0.064c-0.012,0.07-0.021,0.144-0.027,0.217
		c-0.004,0.024-0.007,0.051-0.009,0.076l0,0l0,0c-0.009,0.092-0.013,0.185-0.013,0.277c0,2.436,2.52,4.414,5.619,4.414h4.858
		c3.099,0,5.619-1.98,5.619-4.414c0-2.436-2.521-4.414-5.619-4.414h-4.858c-0.104,0-0.205,0.003-0.304,0.008
		c-0.032,0.002-0.063,0.004-0.099,0.006c-0.002,0-0.004,0-0.006,0c-0.067,0.004-0.135,0.01-0.2,0.014
		c-0.027,0.003-0.056,0.007-0.082,0.009c-0.013,0.001-0.025,0.003-0.038,0.004c-0.061,0.007-0.119,0.015-0.178,0.021
		c-0.002,0-0.004,0-0.004,0c-0.032,0.004-0.064,0.01-0.097,0.014c-0.009,0.001-0.017,0.002-0.024,0.003
		c-0.059,0.01-0.114,0.019-0.17,0.026c-0.01,0.002-0.021,0.004-0.029,0.007c-0.006,0.001-0.014,0.002-0.02,0.004
		c-0.024,0.005-0.051,0.01-0.076,0.014c-0.053,0.011-0.105,0.021-0.16,0.032c-0.018,0.005-0.037,0.009-0.055,0.013
		c-0.022,0.007-0.047,0.013-0.072,0.017c-0.057,0.014-0.111,0.027-0.168,0.043c-0.006,0-0.012,0.003-0.014,0.004
		c-0.005,0-0.009,0.001-0.012,0.002c-0.027,0.008-0.059,0.016-0.087,0.023C26.571,16.239,26.509,16.259,26.446,16.277z"/>
</g>
</svg>
