<?xml version="1.0" encoding="utf-8"?>
<!-- Generator: Adobe Illustrator 16.0.0, SVG Export Plug-In . SVG Version: 6.00 Build 0)  -->
<!DOCTYPE svg PUBLIC "-//W3C//DTD SVG 1.1//EN" "http://www.w3.org/Graphics/SVG/1.1/DTD/svg11.dtd">
<svg version="1.1" id="Layer_1" xmlns="http://www.w3.org/2000/svg" xmlns:xlink="http://www.w3.org/1999/xlink" x="0px" y="0px"
	 width="40px" height="40px" viewBox="0 0 40 40" enable-background="new 0 0 40 40" xml:space="preserve">
<g>
	<path fill="#FFFFFF" d="M33.879,1H6.388C4.636,1,3.089,2.425,3.089,4.184v27.582c0,1.623,1.52,2.959,3.04,3.154v1.721
		c0,1.305,0.917,2.359,2.22,2.359h1.18c1.302,0,2.302-1.055,2.302-2.359v-1.82h16.72v1.818c0,1.307,0.889,2.36,2.191,2.36h1.18
		c1.301,0,2.328-1.054,2.328-2.36V34.92c1.521-0.197,2.66-1.531,2.66-3.154V4.184C36.91,2.425,35.631,1,33.879,1z M6.89,3.381
		c0-0.601,0.56-1.24,1.157-1.24h24.173c0.6,0,1.27,0.64,1.27,1.24v1.996c0,0.602-0.67,0.943-1.27,0.943H8.047
		C7.45,6.32,6.89,5.979,6.89,5.378V3.381z M10.583,30.309c0,0.26-0.21,0.471-0.471,0.471H5.127c-0.259,0-0.469-0.211-0.469-0.471
		V28.35c0-0.261,0.21-0.472,0.469-0.472h4.985c0.26,0,0.471,0.212,0.471,0.472V30.309z M19.429,19.417
		c0,0.883-0.711,1.724-1.59,1.724H6.271c-0.879,0-1.662-0.841-1.662-1.724V9.374c0-0.884,0.783-1.534,1.662-1.534h11.568
		c0.879,0,1.59,0.65,1.59,1.534V19.417z M35.609,30.309c0,0.26-0.211,0.471-0.469,0.471h-4.986c-0.26,0-0.469-0.211-0.469-0.471
		V28.35c0-0.261,0.211-0.472,0.469-0.472h4.986c0.258,0,0.469,0.212,0.469,0.472V30.309z M35.77,19.417
		c0,0.883-0.893,1.724-1.773,1.724H22.43c-0.881,0-1.479-0.841-1.479-1.724V9.374c0-0.884,0.598-1.534,1.479-1.534h11.566
		c0.881,0,1.773,0.65,1.773,1.534V19.417L35.77,19.417z"/>
	<rect x="30.396" y="28.591" fill="#FFFFFF" width="2.414" height="1.476"/>
	<rect x="7.478" y="28.591" fill="#FFFFFF" width="2.396" height="1.476"/>
</g>
</svg>
