<?xml version="1.0" encoding="utf-8"?>
<!-- Generator: Adobe Illustrator 16.0.0, SVG Export Plug-In . SVG Version: 6.00 Build 0)  -->
<!DOCTYPE svg PUBLIC "-//W3C//DTD SVG 1.1//EN" "http://www.w3.org/Graphics/SVG/1.1/DTD/svg11.dtd">
<svg version="1.1" id="Layer_1" xmlns="http://www.w3.org/2000/svg" xmlns:xlink="http://www.w3.org/1999/xlink" x="0px" y="0px"
	 width="40px" height="40px" viewBox="0 0 40 40" enable-background="new 0 0 40 40" xml:space="preserve">
<polygon fill="#FFFFFF" points="7.86,22.482 10.192,18.364 12.255,9.323 12.257,9.325 13.003,10.26 11.083,18.712 8.685,22.948 "/>
<path fill="#FFFFFF" d="M8.528,14.053c-0.707-0.302-1.539-1.005-1.531-2.21l0,0c-0.016-1.1,0.546-1.83,1.167-2.16l0,0
	C8.78,9.344,9.726,9.309,9.726,9.309l0,0c0.096,0,0.164,0.004,0.193,0.006l0,0l2.954,0.003l0.13,0.942H9.866H9.845
	c0,0-0.035-0.005-0.121-0.005l0,0c-0.229-0.002-0.725,0.039-1.101,0.254l0,0c-0.37,0.225-0.666,0.523-0.681,1.333l0,0
	c0.008,0.569,0.242,0.873,0.592,1.133l0,0c0.349,0.25,0.82,0.387,1.134,0.444l0,0c0.209,0.039,0.331,0.046,0.333,0.046l0,0
	l-0.057,0.944C9.916,14.407,9.248,14.372,8.528,14.053L8.528,14.053z"/>
<path fill="#FFFFFF" d="M11.247,14.298l0.673-0.665l9.29,10.39l9.682-1.558l-6.469-9.368H11.899v-0.945H24.92l7.603,11.012
	l-11.645,1.871L11.247,14.298L11.247,14.298z M11.899,13.098L11.899,13.098L11.899,13.098L11.899,13.098z"/>
<polygon fill="#FFFFFF" points="20.593,24.391 25.541,8.168 26.446,8.447 21.497,24.667 "/>
<path fill="#FFFFFF" d="M1,22.814c0-4.028,3.265-7.292,7.293-7.292l0,0c4.028,0,7.292,3.266,7.293,7.292l0,0
	c-0.001,4.026-3.265,7.292-7.293,7.293l0,0C4.265,30.105,1.001,26.842,1,22.814L1,22.814z M1.946,22.814
	c0.006,3.504,2.842,6.34,6.347,6.347l0,0c3.504-0.007,6.34-2.843,6.345-6.347l0,0c-0.006-3.505-2.841-6.34-6.345-6.346l0,0
	C4.788,16.475,1.952,19.31,1.946,22.814L1.946,22.814z"/>
<circle fill="#FFFFFF" cx="8.293" cy="22.815" r="1.025"/>
<path fill="#FFFFFF" d="M24.415,22.814c0.001-4.026,3.266-7.292,7.293-7.293l0,0c4.027,0.001,7.291,3.267,7.292,7.293l0,0
	c-0.001,4.026-3.267,7.292-7.292,7.293l0,0C27.681,30.105,24.416,26.842,24.415,22.814L24.415,22.814z M25.36,22.814
	c0.007,3.505,2.843,6.34,6.348,6.347l0,0c3.504-0.007,6.341-2.842,6.346-6.347l0,0c-0.006-3.506-2.842-6.341-6.346-6.347l0,0
	C28.203,16.474,25.367,19.31,25.36,22.814L25.36,22.814z"/>
<circle fill="#FFFFFF" cx="31.709" cy="22.815" r="1.025"/>
<circle fill="#FFFFFF" cx="21.046" cy="24.214" r="1.025"/>
<polygon fill="#FFFFFF" points="19.955,21.173 20.651,21.04 21.874,27.465 21.176,27.598 "/>
<polygon fill="#FFFFFF" points="19.396,21.359 19.396,20.649 21.169,20.649 21.169,21.359 "/>
<polygon fill="#FFFFFF" points="20.578,27.673 20.578,26.964 22.353,26.964 22.353,27.673 "/>
<path fill="#FFFFFF" d="M23.483,7.66c0,0-0.615,0.123-0.615,0.492c0,0.369,0.367,0.452,0.555,0.431
	c0.086-0.01,2.213-0.062,3.196,0.184s1.478,0.432,1.784-0.061c0.308-0.493,0.369-1.538-0.922-1.477
	C26.188,7.29,23.483,7.66,23.483,7.66z"/>
</svg>
