<?xml version="1.0" encoding="utf-8"?>
<!-- Generator: Adobe Illustrator 16.0.0, SVG Export Plug-In . SVG Version: 6.00 Build 0)  -->
<!DOCTYPE svg PUBLIC "-//W3C//DTD SVG 1.1//EN" "http://www.w3.org/Graphics/SVG/1.1/DTD/svg11.dtd">
<svg version="1.1" id="Layer_1" xmlns="http://www.w3.org/2000/svg" xmlns:xlink="http://www.w3.org/1999/xlink" x="0px" y="0px"
	 width="40px" height="40px" viewBox="0 0 40 40" enable-background="new 0 0 40 40" xml:space="preserve">
<path fill="#FFFFFF" d="M20,20"/>
<path fill="#FFFFFF" d="M35.553,15.011l-3.115-8.043c-0.582-1.54-1.855-2.85-4.266-2.861h-4.393h-7.508h-4.469
	C9.404,4.119,8.131,5.429,7.538,6.968l-3.116,8.043C3.186,15.17,0.996,16.625,1,19.377v10.242h3.04v3.27
	c-0.007,4.029,5.696,3.982,5.694,0v-3.27H20h10.24v3.27c0.013,3.982,5.716,4.029,5.72,0v-3.27H39V19.377
	C38.99,16.624,36.8,15.17,35.553,15.011z M6.977,23.439c-1.457,0.004-2.637-1.213-2.631-2.707c-0.006-1.505,1.174-2.721,2.631-2.708
	c1.453-0.014,2.631,1.203,2.629,2.708C9.607,22.227,8.428,23.441,6.977,23.439z M20,14.935h-0.025H7.666l2.35-6.333
	c0.283-0.899,0.723-1.542,1.762-1.558h8.197H20h8.225c1.021,0.016,1.465,0.658,1.76,1.558l2.352,6.333H20z M33.023,23.439
	c-1.467,0.004-2.646-1.213-2.654-2.707c0.008-1.505,1.188-2.721,2.654-2.708c1.441-0.014,2.621,1.203,2.631,2.708
	C35.646,22.227,34.466,23.441,33.023,23.439z"/>
<path fill="#FFFFFF" d="M20,20"/>
</svg>
