<?xml version="1.0" encoding="utf-8"?>
<!-- Generator: Adobe Illustrator 16.0.0, SVG Export Plug-In . SVG Version: 6.00 Build 0)  -->
<!DOCTYPE svg PUBLIC "-//W3C//DTD SVG 1.1//EN" "http://www.w3.org/Graphics/SVG/1.1/DTD/svg11.dtd">
<svg version="1.1" id="Layer_1" xmlns="http://www.w3.org/2000/svg" xmlns:xlink="http://www.w3.org/1999/xlink" x="0px" y="0px"
	 width="40px" height="40px" viewBox="0 0 40 40" enable-background="new 0 0 40 40" xml:space="preserve">
<path fill="#FFFFFF" d="M33.995,6.617c-0.414-2.101-1.758-2.938-3.773-3.774C28.249,2.016,23.505,1.032,20,1
	c-3.513,0.031-8.255,1.015-10.241,1.842C7.755,3.677,6.415,4.516,6.005,6.617L4.495,18.21v15.997h2.6v2.492
	c-0.01,3.066,4.464,3.066,4.465,0v-2.492h8.261h0.02h8.596v2.492c-0.004,3.066,4.472,3.066,4.469,0v-2.492h2.6V18.208L33.995,6.617z
	 M13.616,3.933h6.227h6.541c1.252-0.003,1.252,1.882,0,1.886h-6.562h-6.207C12.36,5.813,12.36,3.93,13.616,3.933z M9.317,29.193
	c-1.177-0.004-2.14-0.965-2.138-2.156c-0.002-1.18,0.961-2.14,2.138-2.14c1.192,0,2.153,0.96,2.161,2.14
	C11.473,28.229,10.51,29.189,9.317,29.193z M19.843,19.424H8.459c-1.112,0.011-1.345-0.792-1.235-1.594l1.174-8.427
	c0.16-1.014,0.507-1.689,1.844-1.698h9.581h9.938c1.329,0.009,1.676,0.682,1.844,1.699l1.174,8.427
	c0.103,0.802-0.133,1.604-1.235,1.594L19.843,19.424L19.843,19.424z M30.661,29.193c-1.18-0.004-2.139-0.965-2.139-2.156
	c0-1.18,0.959-2.14,2.139-2.14c1.191,0,2.152,0.96,2.158,2.14C32.815,28.229,31.853,29.189,30.661,29.193z"/>
</svg>
